<svg width="128" height="32" viewBox="0 0 128 32" shape-rendering="crispEdges" aria-hidden="true">
  <!-- RoyalStory original pixel-art asset -->
  <!-- Frame 1: a small leaf and gold release point. -->
  <polygon fill="#6b8d43" points="16,8 21,13 17,18 12,13"/>
  <polygon fill="#9fb653" points="16,11 19,14 16,17 13,14"/>
  <rect x="14" y="20" width="4" height="4" fill="#d7a83e"/>
  <rect x="8" y="15" width="3" height="3" fill="#f1cd71"/>
  <rect x="22" y="16" width="3" height="3" fill="#c38c2e"/>
  <!-- Frame 2: leaves and gold particles fan out. -->
  <polygon fill="#5d813e" points="48,3 54,8 50,14 44,9"/>
  <polygon fill="#8fa94e" points="60,7 66,12 62,18 56,13"/>
  <polygon fill="#759640" points="39,14 45,18 41,24 35,20"/>
  <polygon fill="#a9bd58" points="52,20 58,24 54,30 48,26"/>
  <rect x="47" y="13" width="4" height="4" fill="#e0b24a"/>
  <rect x="67" y="4" width="3" height="3" fill="#f5d77e"/>
  <rect x="32" y="8" width="3" height="3" fill="#c89332"/>
  <!-- Frame 3: a wider, airy burst of leaf fragments. -->
  <polygon fill="#60803d" points="76,2 82,7 78,13 72,8"/>
  <polygon fill="#9ab151" points="89,6 95,11 91,17 85,12"/>
  <polygon fill="#6f913f" points="68,17 74,21 70,27 64,23"/>
  <polygon fill="#b4c35d" points="83,22 89,26 85,31 79,27"/>
  <polygon fill="#7f9f45" points="94,18 100,22 96,28 90,24"/>
  <rect x="79" y="13" width="3" height="3" fill="#d7a83e"/>
  <rect x="62" y="6" width="3" height="3" fill="#f1cd71"/>
  <rect x="100" y="8" width="3" height="3" fill="#c38c2e"/>
  <!-- Frame 4: the final gold and moss motes fade away. -->
  <polygon fill="#779542" points="104,4 110,8 106,14 100,10"/>
  <polygon fill="#a9bd58" points="118,6 124,10 120,16 114,12"/>
  <polygon fill="#5d813e" points="111,19 117,23 113,29 107,25"/>
  <rect x="96" y="18" width="3" height="3" fill="#e0b24a"/>
  <rect x="123" y="23" width="3" height="3" fill="#f5d77e"/>
  <rect x="126" y="3" width="2" height="3" fill="#c89332"/>
</svg>
