<svg width="192" height="48" viewBox="0 0 192 48" shape-rendering="crispEdges" aria-hidden="true">
  <!-- RoyalStory original pixel-art asset -->
  <!-- Frame 1: an original moss creature silhouette begins to fracture. -->
  <polygon fill="#263b2d" points="16,9 31,9 31,13 36,13 36,22 40,22 40,34 35,34 35,40 12,40 12,35 8,35 8,23 12,23 12,14 16,14"/>
  <polygon fill="#5d813e" points="17,13 28,13 28,17 33,17 33,25 36,25 36,31 31,31 31,36 16,36 16,32 12,32 12,25 16,25 16,17 17,17"/>
  <rect x="20" y="17" width="4" height="4" fill="#92ad4c"/>
  <rect x="28" y="24" width="4" height="4" fill="#789944"/>
  <rect x="16" y="29" width="4" height="3" fill="#92ad4c"/>
  <rect x="30" y="12" width="3" height="3" fill="#b2c65c"/>
  <!-- Frame 2: broken green silhouette sections pull apart. -->
  <polygon fill="#2b402f" points="56,8 67,8 67,17 62,17 62,23 53,23 53,16 56,16"/>
  <polygon fill="#678b42" points="57,11 64,11 64,18 59,18 59,21 55,21 55,15 57,15"/>
  <polygon fill="#304934" points="70,15 83,15 83,25 88,25 88,34 78,34 78,39 68,39 68,29 72,29"/>
  <polygon fill="#789b47" points="73,18 80,18 80,27 84,27 84,31 76,31 76,35 71,35 71,28 74,28"/>
  <polygon fill="#5d813e" points="50,27 59,27 59,34 54,34 54,40 47,40 47,32 50,32"/>
  <rect x="86" y="10" width="3" height="4" fill="#b2c65c"/>
  <rect x="63" y="38" width="4" height="3" fill="#92ad4c"/>
  <!-- Frame 3: moss shards scatter away from the former silhouette. -->
  <polygon fill="#2f4632" points="99,5 105,9 102,15 96,11"/>
  <polygon fill="#6c9044" points="114,8 121,12 118,19 111,15"/>
  <polygon fill="#94ad50" points="130,13 136,17 133,24 127,20"/>
  <polygon fill="#526f3b" points="106,23 114,27 110,35 102,31"/>
  <polygon fill="#7f9d49" points="121,29 128,33 124,40 117,36"/>
  <polygon fill="#314735" points="139,28 145,32 141,38 135,34"/>
  <rect x="94" y="25" width="4" height="5" fill="#b2c65c"/>
  <rect x="132" y="5" width="3" height="4" fill="#5d813e"/>
  <!-- Frame 4: only a few dim leaflike shards remain. -->
  <polygon fill="#506b39" points="153,8 159,12 156,18 150,14"/>
  <polygon fill="#819a49" points="171,5 176,9 173,14 168,10"/>
  <polygon fill="#314735" points="185,16 191,20 187,26 181,22"/>
  <polygon fill="#668640" points="160,26 166,30 162,36 156,32"/>
  <polygon fill="#9fb454" points="177,31 182,35 178,40 173,36"/>
  <rect x="146" y="24" width="3" height="4" fill="#789944"/>
  <rect x="187" y="6" width="3" height="3" fill="#b2c65c"/>
</svg>
