<svg width="96" height="32" viewBox="0 0 96 32" shape-rendering="crispEdges" aria-hidden="true">
  <!-- RoyalStory original pixel-art asset -->
  <!-- Frame 1: a compact amber spark. -->
  <rect x="14" y="13" width="4" height="6" fill="#a8641d"/>
  <rect x="12" y="15" width="8" height="2" fill="#d99028"/>
  <rect x="15" y="14" width="2" height="4" fill="#fff0a2"/>
  <rect x="15" y="7" width="2" height="4" fill="#d99028"/>
  <rect x="15" y="21" width="2" height="4" fill="#d99028"/>
  <rect x="5" y="15" width="4" height="2" fill="#c67b22"/>
  <rect x="23" y="15" width="4" height="2" fill="#c67b22"/>
  <!-- Frame 2: the expanding eight-point starburst. -->
  <polygon fill="#b96d1e" points="48,2 52,11 62,9 55,16 63,22 53,21 49,30 45,21 34,24 41,17 33,10 44,12"/>
  <polygon fill="#e8a43b" points="48,7 51,13 57,12 53,16 58,20 51,19 48,26 45,19 39,21 43,17 38,12 45,13"/>
  <rect x="46" y="14" width="4" height="4" fill="#fff2a8"/>
  <rect x="47" y="5" width="2" height="2" fill="#d99028"/>
  <rect x="61" y="26" width="2" height="2" fill="#d99028"/>
  <!-- Frame 3: scattered gold fragments after contact. -->
  <polygon fill="#c77b22" points="82,4 86,8 84,12 80,8"/>
  <polygon fill="#e2a143" points="91,11 95,13 93,17 89,15"/>
  <polygon fill="#d99028" points="76,17 80,19 78,23 74,21"/>
  <polygon fill="#f3c76d" points="84,22 88,24 86,28 82,26"/>
  <rect x="68" y="7" width="3" height="3" fill="#e8a43b"/>
  <rect x="70" y="25" width="2" height="2" fill="#c77b22"/>
  <rect x="93" y="4" width="2" height="3" fill="#fff0a2"/>
</svg>