<svg width="144" height="48" viewBox="0 0 144 48" shape-rendering="crispEdges" aria-hidden="true">
  <!-- RoyalStory original pixel-art asset -->
  <!-- Frame 1: the first ivory and gold sweep. -->
  <polygon fill="#9d692c" points="8,40 8,35 12,35 12,31 16,31 16,27 20,27 20,23 24,23 24,19 28,19 28,15 32,15 32,11 36,11 36,15 32,15 32,20 28,20 28,24 24,24 24,28 20,28 20,32 16,32 16,36 12,36 12,40"/>
  <polygon fill="#edc66c" points="12,36 12,32 16,32 16,28 20,28 20,24 24,24 24,20 28,20 28,16 32,16 32,20 28,20 28,24 24,24 24,28 20,28 20,32 16,32 16,36"/>
  <polygon fill="#fff4cf" points="16,32 16,28 20,28 20,24 24,24 24,20 28,20 28,24 24,24 24,28 20,28 20,32"/>
  <rect x="8" y="42" width="4" height="2" fill="#edc66c"/>
  <!-- Frame 2: the broad center of the crescent. -->
  <polygon fill="#9d692c" points="50,40 50,35 54,35 54,30 58,30 58,25 62,25 62,20 66,20 66,15 70,15 70,10 74,10 74,7 82,7 82,12 78,12 78,17 74,17 74,22 70,22 70,27 66,27 66,32 62,32 62,37 58,37 58,41 54,41 54,44 50,44"/>
  <polygon fill="#e1aa52" points="54,37 54,33 58,33 58,28 62,28 62,23 66,23 66,18 70,18 70,13 74,13 74,11 78,11 78,15 74,15 74,20 70,20 70,25 66,25 66,30 62,30 62,35 58,35 58,39"/>
  <polygon fill="#fff5d7" points="58,34 58,30 62,30 62,25 66,25 66,20 70,20 70,15 74,15 74,19 70,19 70,24 66,24 66,29 62,29 62,34"/>
  <rect x="51" y="42" width="3" height="2" fill="#edc66c"/>
  <rect x="80" y="8" width="3" height="3" fill="#fff5d7"/>
  <!-- Frame 3: a tapering finish with falling glints. -->
  <polygon fill="#b87c32" points="101,39 101,35 105,35 105,31 109,31 109,27 113,27 113,23 117,23 117,19 121,19 121,15 125,15 125,12 133,12 133,16 129,16 129,20 125,20 125,24 121,24 121,28 117,28 117,32 113,32 113,36 109,36 109,40 105,40 105,43 101,43"/>
  <polygon fill="#f0cf7a" points="105,36 105,32 109,32 109,28 113,28 113,24 117,24 117,20 121,20 121,16 125,16 125,20 121,20 121,24 117,24 117,28 113,28 113,32 109,32 109,36"/>
  <polygon fill="#fff6d8" points="109,32 109,28 113,28 113,24 117,24 117,20 121,20 121,24 117,24 117,28 113,28 113,32"/>
  <rect x="99" y="42" width="3" height="2" fill="#e1aa52"/>
  <rect x="132" y="9" width="3" height="3" fill="#fff6d8"/>
  <rect x="137" y="15" width="2" height="2" fill="#edc66c"/>
</svg>
