<?xml version="1.0" standalone="no"?>
<!DOCTYPE svg PUBLIC "-//W3C//DTD SVG 20010904//EN"
 "http://www.w3.org/TR/2001/REC-SVG-20010904/DTD/svg10.dtd">
<svg version="1.0" xmlns="http://www.w3.org/2000/svg"
 width="1536.000000pt" height="1024.000000pt" viewBox="0 0 1536.000000 1024.000000"
 preserveAspectRatio="xMidYMid meet">

<g transform="translate(0.000000,1024.000000) scale(0.100000,-0.100000)"
fill="#000000" stroke="none">
<path d="M7680 9579 c0 -8 -9 -20 -20 -27 -11 -7 -20 -17 -20 -23 0 -6 7 -3
16 5 20 21 43 20 51 -1 4 -10 12 -22 20 -26 7 -4 13 -15 13 -23 0 -8 5 -12 10
-9 13 8 50 -4 50 -16 0 -5 -17 -9 -39 -9 -47 0 -51 -9 -51 -131 0 -69 3 -89
17 -100 15 -13 16 -11 9 11 -4 14 -9 41 -10 60 -2 19 -2 26 1 15 16 -76 25
-81 133 -75 25 2 55 3 68 4 12 1 25 9 28 19 8 24 19 21 21 -5 2 -21 26 -46 67
-69 13 -8 17 -8 12 0 -4 6 -3 11 3 11 23 0 18 -20 -15 -59 -20 -23 -39 -40
-41 -37 -3 3 4 15 16 27 12 13 21 25 21 28 0 3 -20 7 -45 9 -25 1 -45 -1 -45
-6 0 -11 -105 9 -137 26 -33 18 -43 15 -43 -14 0 -14 4 -23 10 -19 6 3 10 1
10 -5 0 -8 -7 -9 -17 -5 -10 3 -22 7 -27 8 -5 1 -9 -32 -8 -73 0 -41 1 -98 1
-126 1 -49 3 -52 34 -62 l32 -10 -42 -1 c-50 -1 -59 -21 -10 -21 17 -1 43 -7
57 -15 23 -14 21 -14 -32 -8 -39 4 -58 2 -58 -5 0 -6 8 -13 18 -16 32 -9 97
-20 106 -17 9 2 26 -17 26 -30 0 -7 -22 -10 -75 -10 -34 0 -37 -1 -17 -9 40
-17 24 -30 -38 -30 -100 0 -67 -17 46 -23 140 -9 163 -24 28 -19 l-106 4 37
-48 c20 -27 44 -58 54 -69 26 -29 114 -146 134 -178 10 -15 23 -25 29 -21 6 4
8 3 4 -4 -3 -6 2 -15 11 -21 10 -6 14 -11 9 -11 -5 0 2 -11 16 -25 24 -24 142
-237 168 -305 7 -19 23 -43 34 -52 20 -16 20 -17 3 -35 -10 -10 -24 -27 -32
-38 -14 -19 -14 -19 -15 9 0 26 -2 28 -27 21 -16 -4 -28 -7 -29 -8 -1 -4 -26
-164 -30 -192 -6 -44 -38 -152 -65 -215 -22 -51 -37 -73 -96 -137 -13 -13 -23
-28 -23 -34 0 -5 -7 -9 -15 -9 -8 0 -15 -4 -15 -10 0 -5 22 -10 49 -10 53 0
123 30 175 75 27 23 65 41 70 33 1 -1 14 -20 30 -41 15 -21 26 -40 24 -43 -8
-7 -58 21 -58 33 0 22 -17 23 -40 3 -13 -11 -27 -20 -31 -20 -5 0 -13 -8 -18
-19 -10 -17 -7 -18 34 -13 33 3 55 -1 87 -18 39 -21 52 -22 144 -16 56 3 109
8 118 12 11 4 19 -1 25 -18 5 -13 15 -28 22 -34 24 -18 149 -48 274 -65 33 -4
101 -17 150 -28 l90 -19 -112 3 c-61 1 -116 6 -122 10 -6 3 -41 6 -79 6 -95
-1 -279 21 -256 31 11 4 4 5 -17 2 -19 -3 -78 -1 -130 5 -123 14 -328 28 -513
37 -162 7 -640 -10 -776 -27 -111 -15 -201 -17 -197 -4 2 6 24 15 50 20 25 6
54 18 64 28 17 18 17 18 -7 16 -14 -1 -33 -1 -43 -1 -16 2 -17 4 -3 17 8 9 22
12 32 8 12 -4 15 -3 10 5 -9 14 13 16 46 3 13 -4 57 -11 98 -14 l75 -6 -44 14
c-25 8 -66 26 -93 40 -26 14 -48 23 -48 19 0 -3 -7 1 -15 10 -8 8 -15 20 -15
26 0 8 -6 9 -17 4 -10 -4 -40 -9 -67 -12 l-48 -4 6 43 c3 24 8 55 10 69 4 35
33 37 69 3 20 -19 28 -22 24 -10 -11 31 12 18 26 -16 18 -43 78 -94 125 -106
97 -27 99 -26 123 13 30 52 54 62 87 39 15 -10 38 -23 52 -30 l25 -11 -27 -1
c-20 -1 -26 -5 -22 -16 5 -13 21 -14 87 -10 85 6 105 12 69 22 -12 3 -20 9
-17 13 3 5 -6 17 -20 28 -14 11 -25 23 -25 28 0 4 -7 15 -16 25 -8 9 -17 32
-19 51 -1 18 -17 85 -35 148 -18 63 -39 142 -47 175 -17 71 -24 80 -52 66 -16
-9 -21 -9 -21 0 0 7 -3 10 -6 6 -3 -3 -15 3 -26 13 -22 20 -19 46 12 90 9 14
43 75 74 135 31 61 74 135 96 165 76 104 129 175 187 250 32 42 66 87 75 100
l17 25 -5 -25 c-5 -24 -5 -24 10 -6 9 11 16 25 16 32 0 7 12 17 28 23 26 11
26 11 -8 6 -19 -2 -50 -7 -67 -11 -19 -3 -33 -2 -33 3 0 6 15 15 33 21 31 10
31 10 -10 5 -27 -3 -43 -2 -43 5 0 6 6 13 13 15 8 4 8 6 -3 6 -10 1 -8 6 8 17
26 18 30 39 5 26 -10 -5 -37 -12 -61 -15 -35 -4 -41 -3 -32 8 16 19 64 33 138
40 35 3 74 12 85 21 21 15 18 16 -40 12 -35 -2 -63 -1 -63 4 0 5 -12 6 -27 3
-27 -5 -26 -4 4 10 41 19 50 35 21 36 -19 1 -18 3 7 8 24 5 31 13 38 46 8 37
6 131 -4 164 -2 7 1 15 8 18 8 3 13 -13 16 -49 3 -52 3 -52 5 13 3 102 -11
112 -128 89 -98 -19 -120 -29 -120 -55 0 -13 -6 -22 -15 -22 -9 0 -14 6 -11
13 2 6 -9 24 -25 40 -16 15 -29 23 -29 16 0 -6 5 -14 10 -17 6 -3 10 -11 10
-18 0 -6 -12 1 -27 16 -31 30 -23 48 21 50 15 1 29 9 32 20 3 9 10 14 16 11 8
-5 9 -1 5 10 -11 29 3 38 27 18 17 -13 44 -18 97 -20 l74 -3 18 68 c25 98 23
121 -10 129 -15 4 -36 18 -47 31 -29 38 -30 20 -2 -33 20 -38 26 -63 26 -111
0 -62 -1 -63 -27 -64 -66 -2 -100 3 -125 22 -31 22 -38 23 -38 8 0 -20 -63
-78 -91 -84 -34 -8 -45 -41 -18 -55 10 -6 32 -30 48 -54 38 -55 53 -60 99 -36
41 22 121 27 140 8 19 -19 14 -99 -8 -135 -11 -18 -23 -33 -28 -33 -5 0 -24
-27 -42 -60 -24 -42 -48 -70 -80 -90 -25 -16 -60 -44 -78 -63 -34 -35 -48 -38
-95 -18 -51 20 -160 5 -154 -21 1 -6 -4 -13 -12 -16 -9 -3 -11 0 -6 8 11 18
-47 -14 -69 -39 -11 -12 -25 -21 -33 -21 -7 0 -22 -9 -33 -20 -11 -11 -17 -20
-13 -20 3 0 -2 -10 -13 -21 -10 -12 8 -2 41 23 33 25 69 55 79 67 20 22 42 29
30 9 -5 -8 -1 -9 12 -5 18 7 18 6 2 -7 -10 -7 -18 -16 -18 -19 0 -10 29 -1 48
16 21 19 37 23 26 6 -4 -7 8 -1 27 12 19 13 36 27 37 32 2 4 15 7 29 7 24 0
24 0 -9 -27 -80 -66 -136 -144 -184 -258 -27 -66 -29 -77 -29 -215 0 -137 1
-148 27 -204 16 -32 44 -80 64 -107 20 -27 29 -47 21 -43 -8 3 -23 21 -33 40
-10 19 -22 34 -27 34 -22 0 -58 114 -75 236 -17 120 -19 127 -29 94 l-11 -35
-1 30 c-1 17 -5 26 -9 20 -4 -5 -15 -11 -24 -13 -14 -2 -18 5 -19 35 l-1 38
-7 -35 c-11 -53 -18 -62 -43 -49 -15 8 -17 13 -8 19 9 5 9 9 1 14 -6 4 -11 2
-11 -3 0 -6 -6 -11 -14 -11 -10 0 -16 -19 -21 -67 -9 -94 -16 -104 -11 -15 4
63 3 72 -9 62 -17 -14 -35 -72 -35 -112 0 -16 -4 -28 -10 -28 -11 0 -6 58 16
174 19 98 79 216 137 269 41 38 41 38 4 12 -33 -25 -43 -27 -95 -21 -31 3 -91
8 -132 10 -57 3 -64 3 -30 -3 l45 -8 -46 -1 c-25 -1 -60 -7 -78 -13 -42 -15
-51 -5 -14 16 31 18 35 18 -55 -5 -45 -11 -54 -22 -11 -13 l34 6 -50 -56 c-28
-30 -72 -100 -99 -154 l-50 -98 0 -105 c0 -80 6 -124 23 -183 12 -43 21 -83
19 -88 -6 -18 -58 119 -58 151 0 16 -4 32 -10 35 -5 3 -11 30 -11 58 -1 45 -2
48 -9 22 -7 -27 -8 -25 -9 17 -2 83 -16 88 -22 8 -5 -62 -6 -55 -5 43 1 102
-1 115 -11 90 -7 -15 -12 -36 -13 -45 0 -28 -20 -31 -20 -3 0 24 29 87 66 145
10 15 3 11 -15 -10 -43 -47 -71 -108 -78 -173 -10 -88 -24 -90 -20 -2 5 98 28
149 101 219 47 45 40 47 -10 4 -11 -10 -72 -41 -134 -68 -143 -62 -165 -81
-35 -29 54 22 100 37 102 35 3 -2 -36 -25 -87 -50 -150 -75 -217 -142 -226
-229 -4 -43 -14 -64 -14 -29 0 11 -5 22 -12 24 -8 3 -6 17 10 48 11 23 16 38
11 33 -15 -15 -89 -144 -89 -154 0 -6 -7 -21 -16 -35 -16 -24 -16 -67 1 -134
l6 -25 -15 25 c-10 16 -15 50 -16 94 0 59 4 77 31 125 17 31 38 64 47 74 8 9
13 20 10 23 -5 5 -36 -36 -75 -101 -60 -99 -76 -134 -78 -173 -3 -39 3 -52 45
-111 52 -71 86 -146 129 -281 21 -64 43 -106 86 -165 47 -64 60 -90 67 -134 8
-48 7 -57 -9 -69 -11 -8 -28 -10 -43 -6 -14 3 -65 7 -115 9 -49 1 -113 6 -141
10 -34 5 -59 3 -73 -5 -14 -7 -27 -8 -34 -2 -7 5 -21 12 -32 15 -11 3 -40 13
-65 23 -70 26 -187 44 -280 42 l-85 -1 95 -7 c251 -20 399 -85 594 -264 105
-96 244 -194 347 -247 34 -17 59 -33 56 -35 -3 -3 -20 2 -37 11 -34 18 -120
46 -120 39 0 -2 37 -20 81 -41 45 -20 77 -39 71 -41 -5 -1 -36 10 -68 27 -33
16 -80 39 -107 51 -52 23 -170 96 -232 145 -51 40 -209 135 -224 135 -6 0 -43
16 -81 35 -121 61 -217 78 -422 77 -136 -1 -185 -5 -214 -17 l-38 -16 24 26
c13 14 46 37 74 51 28 13 40 22 26 18 -48 -13 -80 -35 -200 -140 -119 -104
-122 -106 -158 -98 -20 4 -44 8 -52 9 -9 1 -42 21 -75 44 -33 22 -63 41 -68
41 -4 0 -16 9 -28 21 -11 11 -27 18 -35 15 -23 -9 -191 101 -222 145 -23 33
-38 23 -34 -23 2 -24 7 -46 11 -50 4 -5 5 9 3 30 l-3 37 21 -28 c12 -15 25
-25 30 -22 5 3 17 -6 28 -20 11 -14 25 -25 30 -25 21 0 118 -106 142 -153 23
-46 61 -87 82 -87 5 0 -6 19 -26 41 -29 35 -76 117 -76 134 0 3 5 5 10 5 6 0
10 -9 10 -21 0 -11 5 -17 10 -14 6 4 8 11 5 16 -4 5 -2 9 3 9 12 0 42 -34 42
-46 0 -6 13 -23 30 -39 16 -16 30 -24 30 -18 0 6 -7 16 -15 23 -9 7 -14 15
-12 17 3 2 38 -18 78 -45 41 -27 93 -59 116 -72 24 -13 41 -25 39 -28 -3 -2
-71 2 -153 8 l-148 12 -62 50 c-60 48 -82 55 -46 16 9 -10 14 -20 12 -22 -2
-2 -58 14 -124 35 -135 44 -238 63 -302 56 -24 -2 -43 -1 -43 3 0 12 134 70
161 70 33 -1 131 -25 157 -39 12 -6 22 -8 22 -4 -1 51 -130 80 -219 48 -54
-19 -151 -77 -145 -86 2 -5 -8 -15 -23 -23 l-28 -14 40 -7 c22 -4 65 -17 95
-30 30 -12 69 -26 85 -31 53 -17 28 -29 -82 -40 -347 -36 -576 -78 -788 -143
-16 -5 -49 -14 -71 -20 l-41 -11 13 -58 c46 -196 61 -459 45 -784 -18 -342
-64 -623 -130 -792 -6 -16 -10 -31 -7 -33 2 -2 25 5 50 17 43 19 202 65 268
77 36 7 152 -30 210 -66 66 -42 94 -85 123 -187 14 -49 46 -130 70 -180 38
-79 56 -102 138 -180 101 -97 185 -157 310 -223 74 -39 79 -40 106 -26 16 8
72 66 125 130 84 100 223 225 250 225 5 0 20 9 36 20 15 11 39 24 53 29 l26
10 -20 -42 c-38 -84 -15 -148 67 -187 84 -40 224 -36 224 6 0 8 -17 21 -39 30
-61 24 -78 79 -38 125 40 47 83 62 161 57 108 -8 153 -36 105 -66 -24 -15 -69
-106 -69 -141 0 -58 33 -143 74 -188 37 -41 48 -47 109 -58 38 -7 70 -9 73 -4
3 5 2 9 -3 9 -4 0 -25 16 -45 35 -49 44 -51 80 -6 131 40 46 119 82 196 90
l57 6 -30 -20 c-43 -28 -62 -52 -79 -100 -18 -50 -10 -52 47 -14 69 47 185 82
273 82 94 0 204 -22 290 -59 63 -27 66 -29 45 -40 -81 -44 -13 -172 109 -209
114 -34 185 -18 252 55 20 23 46 44 57 48 26 8 233 -68 550 -201 123 -52 227
-91 232 -88 5 3 9 14 9 24 0 10 5 22 10 25 6 3 10 15 10 25 0 18 3 18 48 -7
26 -14 71 -38 99 -53 29 -16 75 -48 102 -73 83 -74 201 -149 225 -143 11 3 65
41 118 84 54 43 125 94 159 113 33 19 74 45 90 57 16 13 29 21 29 17 0 -4 11
0 25 9 14 9 30 14 35 11 13 -8 13 -45 -1 -84 -6 -18 -9 -34 -6 -38 3 -3 27 6
54 19 105 53 266 122 353 152 40 13 120 43 348 128 l62 23 48 -53 c29 -32 60
-56 80 -62 81 -22 235 12 277 62 36 43 37 102 2 130 -12 10 -17 18 -12 18 6 0
2 5 -7 11 -25 14 -22 31 5 28 12 -1 39 5 59 14 20 9 71 26 114 38 104 28 278
24 339 -10 21 -11 45 -21 52 -21 7 0 30 -17 51 -38 21 -21 44 -36 50 -34 24 8
12 59 -23 98 -19 22 -33 45 -30 52 2 6 -1 12 -7 12 -6 0 -36 12 -67 26 -51 25
-63 26 -146 21 -92 -6 -165 -26 -289 -78 -38 -16 -71 -28 -73 -26 -1 2 30 20
71 40 101 49 223 80 321 81 69 1 92 -4 165 -33 107 -43 200 -86 221 -103 19
-15 49 -71 49 -91 0 -19 -43 -57 -64 -57 -24 0 -14 -24 11 -28 30 -5 126 25
164 51 17 12 40 38 50 57 20 36 26 130 10 130 -5 0 -14 12 -19 28 -5 15 -13
35 -17 44 -6 14 0 16 42 14 62 -3 73 -11 104 -71 30 -60 64 -79 135 -78 106 3
194 77 194 165 0 42 20 54 71 43 34 -8 178 -113 202 -147 34 -50 178 -192 175
-173 -4 24 18 47 69 74 21 11 34 20 28 20 -5 0 -21 -6 -35 -14 -31 -18 -50
-19 -50 -2 0 6 -12 23 -26 36 -19 18 -22 26 -12 32 8 5 15 2 20 -10 12 -32 24
-31 37 2 7 18 27 41 45 50 l31 17 -30 -25 c-20 -17 -24 -23 -10 -18 34 12 127
81 207 153 48 44 85 70 100 70 13 0 40 3 60 6 35 6 37 8 33 38 -2 17 -4 35 -4
39 -1 5 -5 6 -10 3 -12 -8 10 79 52 209 20 61 42 133 48 160 7 28 25 75 40
105 16 30 29 63 29 73 0 10 8 21 17 24 34 13 58 49 75 113 10 36 15 48 12 27
-3 -21 -11 -84 -19 -140 -7 -56 -27 -142 -44 -192 -16 -49 -36 -121 -43 -159
-9 -47 -35 -114 -78 -202 -65 -131 -66 -133 -165 -219 -110 -97 -173 -141
-287 -204 -56 -30 -78 -48 -78 -62 0 -24 2 -24 75 2 185 64 396 259 465 429
12 30 28 67 36 81 7 14 25 64 40 110 14 46 35 93 45 105 22 23 123 75 183 94
54 17 137 7 281 -35 66 -19 125 -35 131 -35 7 0 3 24 -12 65 -27 73 -65 256
-95 455 -37 239 -38 737 -3 1072 l5 47 -30 -4 c-51 -6 -73 -16 -67 -30 3 -8
-11 -25 -32 -41 -37 -27 -37 -27 -14 -2 l23 25 -28 -4 -28 -4 28 16 c16 9 26
19 24 22 -11 10 -108 -51 -142 -89 -23 -25 -40 -35 -50 -31 -10 3 -30 -4 -47
-17 -28 -21 -31 -21 -24 -4 20 54 76 129 119 160 54 39 107 44 191 19 43 -13
69 -14 55 -1 -10 9 -204 69 -294 92 -110 27 -372 66 -563 85 -102 10 -121 14
-110 25 16 16 145 64 173 64 11 0 27 5 35 10 12 7 10 11 -10 19 -14 5 -19 10
-12 10 11 1 11 3 0 14 -21 20 -114 77 -126 77 -5 0 -12 5 -14 11 -3 8 -34 11
-91 10 l-87 -2 11 24 c7 16 7 34 1 58 l-10 34 -1 -37 c-1 -22 -15 -65 -36
-104 -20 -37 -34 -68 -32 -70 2 -2 19 7 38 21 67 48 149 67 210 46 34 -11 109
-67 78 -58 -36 12 -172 -25 -376 -102 -46 -17 -83 -28 -83 -26 0 3 21 19 47
35 26 17 43 30 38 30 -4 0 0 10 11 22 20 23 10 19 -40 -15 -16 -11 -54 -33
-84 -49 l-56 -28 29 30 c16 16 26 30 22 30 -4 0 6 26 23 57 20 37 47 68 77 90
62 44 66 49 18 25 -22 -11 -49 -30 -59 -41 -15 -17 -27 -20 -48 -15 -18 3 -35
1 -45 -8 -14 -11 -16 -11 -8 1 5 9 -5 5 -22 -7 -17 -12 -36 -22 -42 -22 -7 0
-22 -9 -34 -21 -24 -23 -54 -37 -105 -49 -29 -7 -35 -5 -58 26 -15 19 -31 34
-36 34 -5 0 -40 31 -79 69 -75 74 -218 154 -294 166 -55 8 -25 -9 43 -25 29
-7 67 -22 85 -34 17 -11 43 -27 57 -34 14 -7 54 -40 90 -73 l65 -60 -67 51
c-38 29 -68 49 -68 46 0 -3 -11 -1 -25 4 -44 17 -77 20 -205 21 -99 0 -151 -5
-249 -26 -180 -38 -257 -76 -420 -208 -41 -34 -121 -84 -185 -115 -126 -62
-361 -159 -331 -136 40 30 67 56 63 60 -3 2 -19 -1 -37 -7 -48 -17 -47 -5 1
16 24 9 61 25 83 35 22 10 57 23 77 29 53 17 139 76 258 176 161 135 328 236
414 250 17 3 45 10 63 16 17 5 76 14 130 18 l98 8 -83 2 c-87 1 -199 -17 -292
-49 -85 -28 -98 -30 -274 -35 -134 -5 -171 -3 -201 9 l-36 16 7 56 c6 49 12
61 50 96 57 53 79 89 99 167 9 35 25 83 35 105 10 23 31 70 46 106 16 36 32
67 36 68 4 2 8 9 8 15 0 6 9 20 20 32 51 54 15 146 -129 335 -30 38 -58 70
-62 70 -12 0 51 -90 77 -112 22 -18 51 -132 41 -160 -2 -7 -8 5 -11 27 -4 22
-15 60 -24 85 l-17 45 -5 -80 -5 -80 -13 55 c-12 49 -31 97 -64 167 -23 48
-73 95 -131 124 -71 35 -100 58 -44 35 22 -9 37 -11 37 -5 0 6 17 1 38 -11
l37 -22 -25 22 c-32 28 -103 64 -160 81 -25 7 -72 34 -105 60 -59 45 -105 74
-105 65 0 -2 17 -15 38 -27 56 -35 122 -99 142 -139 45 -88 75 -281 50 -320
-7 -10 -9 3 -9 45 1 33 -8 96 -20 140 -12 48 -19 64 -17 40 2 -22 1 -49 -3
-60 -6 -14 -10 -6 -15 33 -14 105 -142 279 -243 330 -97 49 -270 72 -319 43
-14 -8 0 -9 58 -4 95 7 180 -9 235 -46 165 -109 234 -201 231 -311 0 -32 -3
-43 -5 -25 -7 48 -23 54 -24 10 -1 -27 -3 -32 -6 -16 -3 13 -11 31 -19 38 -12
12 -14 11 -15 -9 -3 -84 -11 -164 -18 -173 -5 -5 -11 -30 -15 -55 -4 -25 -16
-59 -27 -75 -12 -17 -18 -21 -14 -10 15 44 36 223 30 265 -15 109 -82 257
-142 311 -88 79 -103 84 -259 84 -111 0 -138 -3 -128 -12 64 -65 130 -291 122
-424 l-3 -54 -18 90 c-10 49 -22 92 -27 95 -5 3 -12 29 -16 58 -4 29 -11 55
-16 58 -5 4 -7 -8 -3 -29 6 -28 2 -39 -18 -61 l-26 -27 -14 23 c-8 13 -17 35
-21 51 -12 50 -22 28 -19 -40 2 -41 -2 -88 -11 -118 l-15 -50 5 77 c4 43 3 95
-2 115 l-8 38 -7 -45 c-4 -25 -15 -76 -24 -115 -9 -38 -21 -93 -25 -122 -5
-33 -22 -73 -46 -110 -47 -73 -58 -85 -49 -54 5 16 4 21 -4 17 -19 -12 -12 2
23 48 61 80 85 198 67 326 -11 83 -54 202 -65 179 -3 -8 -4 -5 -1 7 3 11 -2
29 -10 40 -8 10 -15 26 -15 35 0 9 -7 22 -16 30 -8 7 -31 37 -51 66 -27 40
-40 52 -53 48 -25 -8 -35 12 -12 24 23 12 59 4 66 -14 3 -8 14 -19 25 -25 17
-8 19 -8 15 4 -3 8 -13 17 -22 19 -14 4 -13 5 2 6 11 0 32 -11 48 -26 15 -14
31 -24 34 -20 4 4 -4 16 -17 28 -13 11 -17 17 -9 13 23 -11 82 -55 113 -83 15
-14 27 -21 27 -17 0 5 7 3 15 -4 8 -7 13 -15 11 -19 -3 -4 7 -8 22 -9 l27 -1
-34 28 c-54 47 -192 127 -243 141 -40 11 -54 10 -102 -5 l-55 -17 -54 55 c-30
30 -64 58 -76 62 -11 3 -21 11 -21 17 0 5 -7 8 -15 4 -11 -4 -15 2 -15 25 0
31 -27 66 -79 101 -22 16 -24 23 -22 100 1 45 3 84 5 85 2 2 16 -3 32 -12 16
-8 37 -15 47 -15 10 0 38 -11 63 -25 37 -21 48 -23 64 -13 11 7 20 18 20 24 0
7 20 33 45 59 25 25 43 50 40 55 -3 5 -24 23 -47 42 -29 23 -40 27 -35 15 4
-12 3 -16 -4 -12 -6 4 -8 13 -5 21 3 8 -4 24 -15 35 l-20 20 -33 -21 c-19 -11
-60 -23 -94 -26 l-60 -7 -7 32 c-9 43 4 150 22 178 14 21 13 23 -24 42 -21 10
-53 38 -70 62 -18 23 -33 36 -33 28z m79 -176 c0 -25 -1 -25 -8 -8 -8 18 -10
16 -19 -15 l-11 -35 2 33 c2 18 9 37 17 42 20 13 20 13 19 -17z m-186 -290 c2
-24 0 -43 -4 -43 -10 0 -10 0 -13 58 -3 54 11 41 17 -15z m320 20 c-7 -2 -19
-2 -25 0 -7 3 -2 5 12 5 14 0 19 -2 13 -5z m-123 -49 c0 -21 -4 -33 -10 -29
-17 10 -11 65 7 65 2 0 3 -16 3 -36z m-163 -91 c-2 -16 -4 -3 -4 27 0 30 2 43
4 28 2 -16 2 -40 0 -55z m-122 -263 c-3 -5 -12 -10 -18 -10 -7 0 -6 4 3 10 19
12 23 12 15 0z m45 -50 c0 -12 -4 -12 -90 -15 -63 -3 -64 -2 -30 10 43 15 120
19 120 5z m-381 -49 c-13 -11 -26 -17 -29 -14 -6 6 30 33 43 33 5 0 -1 -9 -14
-19z m401 -25 c0 -8 -9 -24 -20 -37 l-19 -24 17 37 c19 41 22 45 22 24z m-55
-86 c-10 -11 -22 -17 -27 -14 -5 4 1 12 14 19 32 18 34 18 13 -5z m-295 -261
c0 -6 -4 -7 -10 -4 -5 3 -10 11 -10 16 0 6 5 7 10 4 6 -3 10 -11 10 -16z
m2129 -15 c14 -12 -19 -1 -35 12 -18 14 -18 14 6 3 14 -6 27 -13 29 -15z
m-2589 -277 c0 -18 -2 -19 -10 -7 -13 20 -13 43 0 35 6 -3 10 -16 10 -28z
m117 11 c-3 -8 -6 -5 -6 6 -1 11 2 17 5 13 3 -3 4 -12 1 -19z m1744 -4 c20 10
-72 -73 -94 -85 -16 -9 -17 -8 -8 9 6 11 14 22 19 24 4 1 18 18 31 36 16 23
26 30 31 22 4 -7 14 -9 21 -6z m-141 -63 c-20 -38 -29 -22 -12 22 14 33 18 38
20 20 2 -12 -2 -31 -8 -42z m206 9 c6 -22 8 -37 3 -35 -9 6 -33 -67 -49 -147
-8 -42 -20 -66 -43 -90 -35 -36 -34 -26 -28 -232 0 -15 -4 -37 -10 -47 -8 -16
-6 -19 9 -19 11 0 22 -9 25 -20 3 -11 1 -20 -4 -20 -5 0 -9 4 -9 9 0 5 -9 7
-19 4 -13 -3 -21 2 -26 16 -6 20 -35 30 -35 12 0 -5 -11 -4 -24 2 -13 7 -22
16 -18 22 3 5 -2 4 -11 -4 -9 -7 -15 -17 -12 -21 3 -4 -2 -10 -10 -14 -8 -3
-12 -12 -9 -19 6 -16 -90 -47 -146 -47 -32 0 -33 1 -14 15 10 8 26 15 35 15 9
0 43 14 77 31 51 25 63 36 71 64 5 19 20 49 33 67 12 18 22 39 20 45 -4 18 8
16 30 -4 23 -20 23 -9 4 65 -27 101 -133 151 -213 102 -37 -22 -47 -48 -12
-29 16 8 20 8 14 -1 -4 -7 -21 -18 -39 -26 -17 -7 -23 -13 -14 -14 9 0 20 -5
24 -12 4 -7 3 -8 -4 -4 -7 4 -12 2 -12 -3 0 -6 -6 -11 -14 -11 -29 0 -30 52
-4 122 6 15 32 41 59 59 39 25 57 30 84 26 52 -8 84 -35 95 -78 14 -49 21 -50
19 -1 -2 72 8 108 46 160 32 45 96 102 115 102 3 0 11 -18 16 -40z m1004 -9
c21 -43 40 -168 21 -141 -10 13 -11 13 -11 0 0 -13 -2 -13 -9 -1 -7 11 -12 7
-25 -15 l-15 -29 -1 38 c0 23 4 36 10 32 6 -3 10 4 10 16 0 22 0 22 15 3 14
-18 14 -18 15 4 0 13 -6 35 -14 50 -15 31 -29 82 -21 82 2 0 14 -18 25 -39z
m-2915 -7 c39 -20 73 -41 77 -47 4 -7 8 -34 8 -62 0 -32 3 -45 9 -36 6 9 11
10 15 2 4 -5 -3 -20 -15 -32 -12 -12 -25 -33 -29 -48 -8 -25 -8 -25 -9 -2 -1
17 -4 21 -13 14 -7 -6 -23 -13 -35 -16 -19 -4 -24 2 -39 47 -10 28 -17 62 -16
76 1 21 1 22 -6 6 -11 -26 -21 -9 -17 28 2 16 -3 42 -11 58 -14 27 -12 48 4
48 4 0 39 -16 77 -36z m-958 -6 c-3 -7 -5 -2 -5 12 0 14 2 19 5 13 2 -7 2 -19
0 -25z m2588 -27 c-8 -17 -20 -31 -25 -31 -6 0 -1 19 11 43 12 23 24 37 26 30
2 -6 -3 -25 -12 -42z m843 3 c-6 -21 -13 -32 -15 -23 -4 17 15 75 22 67 2 -2
-1 -22 -7 -44z m-3505 -54 c7 -54 -8 -34 -18 25 -5 27 -4 37 3 30 5 -5 12 -30
15 -55z m84 -7 c-3 -10 -5 -2 -5 17 0 19 2 27 5 18 2 -10 2 -26 0 -35z m352
-8 c0 -5 -4 -3 -9 5 -5 8 -9 22 -9 30 0 16 17 -16 18 -35z m1019 4 c-3 -8 -7
-3 -11 10 -4 17 -3 21 5 13 5 -5 8 -16 6 -23z m1509 9 c-3 -8 -6 -5 -6 6 -1
11 2 17 5 13 3 -3 4 -12 1 -19z m-2229 0 c17 -17 15 -31 -3 -24 -8 3 -15 0
-15 -7 0 -16 -20 14 -20 31 0 15 22 16 38 0z m2445 5 c-7 -2 -13 -13 -13 -24
0 -12 -7 -19 -20 -19 -23 0 -24 4 -10 31 6 10 21 19 33 18 12 0 16 -3 10 -6z
m674 -25 c-3 -7 -5 -2 -5 12 0 14 2 19 5 13 2 -7 2 -19 0 -25z m-2920 -30 c-3
-8 -6 -5 -6 6 -1 11 2 17 5 13 3 -3 4 -12 1 -19z m380 -3 c48 -20 68 -39 93
-87 18 -36 19 -41 5 -68 -23 -44 -33 -44 -41 -3 -11 66 -28 83 -83 83 -74 0
-120 -45 -136 -133 -4 -20 -11 -35 -15 -32 -4 3 -11 -5 -15 -18 -5 -17 -8 -18
-12 -7 -3 8 -12 19 -19 23 -8 4 -14 13 -14 20 0 26 44 153 57 163 7 6 13 17
13 23 0 7 4 10 9 6 5 -3 26 6 47 20 43 29 61 31 111 10z m-1278 -55 c0 -10 -3
-8 -9 5 -12 27 -12 43 0 25 5 -8 9 -22 9 -30z m2938 8 c-3 -7 -5 -2 -5 12 0
14 2 19 5 13 2 -7 2 -19 0 -25z m-1977 -22 c0 -8 -4 -18 -10 -21 -5 -3 -10 3
-10 14 0 12 5 21 10 21 6 0 10 -6 10 -14z m2644 -22 c9 -8 16 -27 16 -42 0
-19 -3 -23 -9 -13 -11 17 -20 1 -47 -86 -11 -37 -22 -57 -26 -50 -5 8 -8 6 -8
-5 0 -11 -8 -18 -18 -18 -10 0 -23 -5 -29 -11 -8 -8 -14 0 -23 27 -7 20 -22
53 -33 71 l-20 35 24 23 c22 22 134 85 151 85 3 0 14 -7 22 -16z m-3275 -40
c45 -32 61 -50 58 -62 -3 -9 -12 -41 -21 -71 -18 -63 -39 -93 -26 -37 7 31 5
38 -12 47 -20 11 -21 9 -15 -20 11 -53 -9 -34 -38 37 -15 37 -32 71 -37 77
-10 11 -11 59 -1 68 13 14 30 6 92 -39z m479 29 c-25 -4 -45 -29 -33 -41 3 -3
21 2 40 11 40 19 65 22 65 7 0 -5 6 -10 14 -10 26 0 63 -40 85 -92 20 -50 20
-52 1 -28 -11 14 -20 28 -20 31 0 12 -65 37 -112 44 -37 6 -48 4 -48 -6 0 -8
-12 -22 -25 -32 l-24 -17 -7 37 c-4 21 -12 44 -18 52 -7 9 -7 16 -1 18 6 2 21
10 35 17 14 8 36 14 50 14 24 -1 24 -1 -2 -5z m2265 -95 c-1 -39 -6 -75 -12
-81 -8 -8 -11 -3 -11 16 0 36 -48 61 -99 52 l-36 -6 30 25 c17 14 24 25 17 26
-22 0 -84 -30 -98 -48 -9 -12 -13 -13 -14 -3 0 21 68 84 85 77 8 -3 17 -1 20
4 4 6 19 10 35 10 16 0 35 6 42 14 11 13 15 12 28 0 11 -11 15 -34 13 -86z
m-2033 55 c0 -22 -2 -25 -10 -13 -13 20 -13 40 0 40 6 0 10 -12 10 -27z m1670
-37 c0 -6 -9 0 -20 14 -26 33 -25 52 0 21 11 -13 20 -28 20 -35z m402 -7 c0
-19 -5 -45 -11 -59 -8 -21 -10 -13 -10 45 -1 50 2 66 10 58 6 -6 11 -26 11
-44z m-2607 -49 c-50 -6 -68 -17 -88 -55 -9 -16 -16 -24 -17 -17 0 20 31 62
57 76 14 7 39 10 56 7 l32 -6 -40 -5z m2395 16 c0 -3 -4 -8 -10 -11 -5 -3 -10
-1 -10 4 0 6 5 11 10 11 6 0 10 -2 10 -4z m484 -17 c14 -11 24 -25 21 -30 -4
-5 -1 -9 4 -9 19 0 12 -17 -9 -23 -10 -3 -24 1 -31 9 -13 16 -62 18 -90 4 -11
-7 -19 -21 -19 -38 0 -21 -2 -24 -10 -12 -14 22 -1 82 22 103 27 23 79 22 112
-4z m-2791 -55 c16 -24 42 -103 36 -109 -3 -2 -18 21 -33 51 -16 31 -41 64
-57 73 -16 10 -26 20 -23 24 9 9 64 -18 77 -39z m-98 -11 c-28 -20 -41 -16
-19 6 10 10 23 16 28 13 5 -3 1 -11 -9 -19z m-234 -35 c15 -21 17 -28 6 -19
-10 8 -34 12 -61 10 -24 -2 -42 0 -39 4 4 7 56 34 70 37 1 0 12 -15 24 -32z
m3152 17 c4 -8 2 -17 -3 -20 -6 -4 -10 -4 -10 -1 0 2 -3 11 -6 20 -3 9 -2 16
4 16 5 0 12 -7 15 -15z m267 -15 c0 -5 -4 -10 -10 -10 -5 0 -10 -13 -10 -30 0
-25 -4 -30 -24 -30 -14 0 -28 5 -32 11 -4 8 -9 8 -17 0 -6 -6 -20 -11 -31 -11
-18 0 -18 1 -2 19 10 10 37 24 62 30 24 6 44 16 44 21 0 6 5 10 10 10 6 0 10
-4 10 -10z m-243 -42 c-3 -8 -6 -5 -6 6 -1 11 2 17 5 13 3 -3 4 -12 1 -19z
m-3209 5 c-10 -2 -26 -2 -35 0 -10 3 -2 5 17 5 19 0 27 -2 18 -5z m67 -13 c3
-5 2 -10 -4 -10 -5 0 -13 5 -16 10 -3 6 -2 10 4 10 5 0 13 -4 16 -10z m3132
-42 c-3 -8 -6 -5 -6 6 -1 11 2 17 5 13 3 -3 4 -12 1 -19z m-2969 -101 c20 -27
52 -55 71 -63 37 -15 37 -30 0 -19 -23 8 -103 84 -119 116 -6 10 -10 28 -9 41
l0 23 10 -24 c5 -14 26 -47 47 -74z m314 23 l48 -69 -34 20 c-19 11 -39 33
-46 49 -12 30 -30 41 -30 18 0 -6 -2 -9 -5 -6 -7 7 5 58 14 58 3 -1 27 -32 53
-70z m2335 10 c-33 -46 -51 -59 -72 -54 -17 4 -24 0 -28 -15 -5 -22 -38 -26
-87 -11 -27 8 -25 10 50 30 29 8 60 27 89 57 39 38 46 42 52 26 4 -10 2 -25
-4 -33z m325 -7 c-6 -15 -13 -45 -16 -66 -6 -44 -29 -70 -65 -74 l-26 -3 25
15 c14 8 21 14 17 15 -5 0 1 12 12 26 30 39 26 52 -7 21 -15 -15 -35 -27 -43
-27 -8 0 -2 10 16 26 24 21 27 27 15 35 -13 9 -13 10 -1 7 8 -3 28 11 44 29
34 38 45 37 29 -4z m-2740 -55 c-7 -7 -12 -8 -12 -2 0 14 12 26 19 19 2 -3 -1
-11 -7 -17z m-236 -15 c-7 -7 -26 7 -26 19 0 6 6 6 15 -2 9 -7 13 -15 11 -17z
m452 12 c1 -1 -6 -5 -16 -7 -10 -3 -30 1 -43 8 -23 13 -22 14 16 8 22 -4 41
-8 43 -9z m57 -5 c17 -7 14 -9 -13 -9 -20 -1 -31 3 -27 9 7 12 13 12 40 0z
m2200 0 c3 -5 1 -10 -4 -10 -6 0 -11 5 -11 10 0 6 2 10 4 10 3 0 8 -4 11 -10z
m-2749 -43 c3 -18 12 -35 18 -39 8 -6 8 -8 -1 -8 -16 0 -43 28 -43 45 0 7 -3
21 -6 29 -5 12 -2 15 9 10 9 -3 19 -20 23 -37z m364 23 c8 -5 11 -10 5 -10 -5
0 -17 5 -25 10 -8 5 -10 10 -5 10 6 0 17 -5 25 -10z m1315 -21 c50 -5 119 -12
155 -15 36 -3 66 -7 67 -8 2 -1 -20 -13 -47 -27 -27 -13 -50 -27 -50 -31 0
-11 2 -11 64 18 31 14 56 29 56 33 0 4 16 5 34 2 42 -7 131 -85 122 -107 -3
-7 -1 -14 4 -14 6 0 10 -4 10 -10 0 -5 -4 -10 -8 -10 -5 0 -34 -14 -66 -31
-38 -21 -54 -34 -46 -39 17 -11 132 50 138 73 5 19 22 23 22 5 -1 -21 -23 -43
-58 -59 -30 -13 -37 -29 -16 -36 6 -2 29 13 51 32 39 33 43 34 58 19 9 -10 14
-25 12 -36 -4 -13 2 -20 19 -24 13 -3 24 -10 24 -14 0 -15 -40 -7 -56 11 -13
15 -19 15 -55 2 -23 -7 -50 -11 -61 -7 -15 4 -19 2 -16 -7 5 -14 23 -18 208
-44 235 -32 270 -38 380 -62 63 -14 126 -32 140 -39 l25 -14 -25 5 c-14 2 -70
13 -125 24 -119 23 -219 35 -190 22 11 -4 42 -11 68 -15 27 -4 47 -10 44 -12
-3 -3 -33 0 -67 6 -63 11 -116 17 -440 46 -152 13 -261 15 -605 10 -591 -9
-760 -14 -919 -31 -76 -8 -146 -15 -155 -14 -37 1 77 28 186 43 65 9 148 21
185 26 37 6 86 10 110 11 39 0 41 1 18 10 -14 6 -50 8 -83 4 l-59 -6 31 30
c17 17 29 36 28 43 -2 7 -2 10 0 6 3 -5 14 -3 26 4 22 11 22 11 3 -11 -11 -11
-14 -21 -9 -21 6 0 16 7 23 15 7 9 19 14 27 11 7 -3 13 1 13 8 0 8 7 16 15 20
22 8 18 25 -5 19 -26 -7 -26 3 0 17 16 8 28 7 53 -7 17 -10 35 -22 39 -28 4
-5 10 -7 13 -3 4 3 -3 16 -15 28 l-21 21 37 44 c45 56 30 60 -19 5 -50 -56
-77 -53 -29 3 30 34 -5 16 -43 -23 -21 -22 -46 -40 -55 -40 -13 1 -12 3 3 14
9 7 17 17 17 21 0 5 -8 1 -19 -9 -18 -16 -51 -13 -51 5 0 5 -5 8 -11 7 -6 -2
-12 12 -14 30 -2 27 2 36 20 44 19 9 29 6 59 -17 42 -32 49 -22 9 13 l-28 23
38 -6 c22 -4 37 -2 37 4 0 6 6 8 13 5 8 -3 36 0 63 6 44 10 50 9 65 -9 18 -21
31 -18 22 5 -3 8 1 14 8 14 37 0 413 31 416 34 4 4 57 0 188 -15z m-1080 1 c3
-6 -5 -10 -19 -10 -14 0 -28 5 -31 10 -3 6 5 10 19 10 14 0 28 -4 31 -10z
m2232 -6 c-3 -3 -12 -4 -19 -1 -8 3 -5 6 6 6 11 1 17 -2 13 -5z m-2432 -13
c-36 -15 -101 -23 -90 -12 6 5 26 11 45 14 58 6 66 6 45 -2z m-175 -21 c-8 -5
-28 -10 -45 -10 -23 0 -27 3 -15 10 8 5 29 10 45 10 23 0 27 -3 15 -10z m1890
-57 c85 -80 100 -102 65 -95 -14 2 -25 10 -25 16 0 14 -84 105 -119 128 -20
14 -22 18 -9 18 10 0 49 -30 88 -67z m-1980 47 c-8 -5 -19 -10 -25 -10 -5 0
-3 5 5 10 8 5 20 10 25 10 6 0 3 -5 -5 -10z m2029 -10 c18 -5 41 -7 51 -5 10
2 21 -3 24 -11 3 -8 13 -14 23 -14 15 0 16 2 3 10 -30 19 13 11 52 -10 29 -15
36 -16 32 -5 -4 9 0 15 9 15 22 0 47 -11 47 -20 0 -9 -146 -80 -165 -80 -19 0
-66 40 -59 51 3 5 1 8 -4 7 -5 -2 -28 17 -52 41 -36 37 -39 43 -19 37 13 -4
39 -11 58 -16z m746 -15 c22 -7 31 -13 20 -13 -11 0 -38 5 -60 13 -22 7 -31
13 -20 13 11 0 38 -5 60 -13z m-2229 -10 c4 -8 15 -15 25 -15 10 0 19 -6 19
-13 0 -13 51 -48 85 -57 23 -7 27 -31 6 -38 -8 -3 -11 0 -7 6 4 6 -2 8 -15 5
-14 -4 -25 0 -31 11 -5 9 -14 16 -19 16 -6 0 -22 9 -36 20 -14 11 -34 20 -45
20 -18 0 -18 1 -2 17 11 11 13 18 5 21 -14 5 -15 22 -1 22 6 0 13 -7 16 -15z
m2159 -5 l20 -9 -20 0 c-11 0 -29 4 -40 9 l-20 9 20 0 c11 0 29 -4 40 -9z
m-325 -54 c0 -3 -18 3 -40 12 -22 9 -40 20 -40 25 0 4 18 -2 40 -13 22 -11 40
-22 40 -24z m-2016 19 c-10 -8 -23 -15 -27 -15 -12 0 -46 -40 -57 -67 -12 -28
-26 -30 -33 -4 -3 12 1 18 12 17 9 0 23 13 31 31 14 30 45 50 79 52 10 1 9 -4
-5 -14z m-1079 -5 c3 -5 43 -11 88 -11 l82 -2 -73 -9 c-60 -8 -76 -7 -90 5 -9
8 -24 17 -32 20 -12 4 -12 6 2 6 9 1 20 -3 23 -9z m485 6 c0 -2 -7 -7 -16 -10
-8 -3 -12 -2 -9 4 6 10 25 14 25 6z m3591 -16 c21 0 39 -5 39 -11 0 -12 -76
-3 -100 13 -12 8 -11 8 3 4 10 -3 36 -6 58 -6z m92 3 c-7 -2 -21 -2 -30 0 -10
3 -4 5 12 5 17 0 24 -2 18 -5z m-993 -18 c20 -24 6 -28 -15 -5 -10 11 -13 20
-8 20 6 0 16 -7 23 -15z m-2290 -14 c0 -5 -7 -12 -16 -15 -14 -5 -15 -4 -4 9
14 17 20 19 20 6z m2246 -38 l37 -48 -41 40 c-37 34 -51 55 -38 55 2 0 21 -21
42 -47z m-1849 31 c-3 -3 -12 -4 -19 -1 -8 3 -5 6 6 6 11 1 17 -2 13 -5z
m1913 -16 c18 -1 26 -4 19 -8 -6 -4 -9 -12 -5 -18 7 -12 16 -13 99 -15 57 -2
58 -2 36 -19 -11 -10 -30 -18 -41 -18 -17 0 -18 -3 -8 -15 7 -8 10 -15 8 -15
-12 0 -67 32 -78 45 -7 8 -20 15 -29 15 -9 1 -26 17 -39 37 -13 20 -17 31 -8
24 8 -7 29 -13 46 -13z m171 -10 c11 -21 11 -22 -4 -9 -10 7 -17 17 -17 22 0
15 9 10 21 -13z m-2021 -21 c0 -5 -4 -5 -10 -2 -5 3 -10 14 -10 23 0 15 2 15
10 2 5 -8 10 -19 10 -23z m1927 27 c-3 -3 -12 -4 -19 -1 -8 3 -5 6 6 6 11 1
17 -2 13 -5z m2453 -14 c-20 -13 -33 -13 -25 0 3 6 14 10 23 10 15 0 15 -2 2
-10z m-6020 -24 c38 -13 39 -14 10 -9 -19 3 -87 6 -150 5 -97 0 -127 -4 -195
-26 -44 -15 -81 -23 -83 -18 -4 12 -61 -1 -149 -33 l-68 -25 30 25 c16 13 58
39 93 56 53 27 80 34 160 40 134 10 298 3 352 -15z m1223 14 c31 0 37 -19 7
-27 -11 -3 -20 -9 -20 -12 0 -10 -31 -8 -48 3 -6 4 -12 12 -12 19 0 8 3 8 12
-1 14 -14 28 -16 28 -4 0 5 -10 14 -22 21 -23 11 -23 11 2 6 14 -2 37 -5 53
-5z m3966 0 c96 -13 160 -41 211 -95 l35 -37 -45 7 c-25 4 -90 22 -145 39
-119 39 -231 66 -273 66 -63 0 -68 15 -7 21 101 10 137 9 224 -1z m-5733 -31
c-32 -16 -61 -28 -64 -25 -2 3 6 10 19 16 13 6 35 17 49 25 14 8 32 15 40 15
8 0 -11 -14 -44 -31z m3842 14 c-2 -9 -8 -18 -15 -20 -7 -3 -9 3 -6 16 6 25
26 28 21 4z m-2356 -15 c-7 -7 -12 -8 -12 -2 0 14 12 26 19 19 2 -3 -1 -11 -7
-17z m2309 5 c13 -15 12 -15 -8 -4 -24 12 -29 21 -14 21 5 0 15 -7 22 -17z
m560 -16 c-16 -16 -26 0 -10 19 9 11 15 12 17 4 2 -6 -1 -17 -7 -23z m-641
-41 c0 -6 -4 -6 -11 1 -6 6 -17 9 -24 7 -7 -3 -16 0 -21 7 -5 9 -2 10 9 6 10
-3 17 -2 17 2 0 5 -7 11 -15 15 -8 3 -15 11 -15 18 0 6 14 -1 30 -17 17 -16
30 -33 30 -39z m2606 37 c5 -31 -69 -120 -122 -147 -47 -23 -115 -36 -135 -26
-9 5 -19 18 -22 29 -4 16 10 27 82 64 47 24 109 58 136 74 53 32 57 32 61 6z
m-4160 -8 c-11 -8 -24 -15 -30 -15 -5 0 -1 7 10 15 10 8 24 14 29 14 6 0 1 -6
-9 -14z m3509 -28 c28 -13 61 -34 75 -45 14 -11 -20 2 -75 30 -55 27 -102 51
-104 54 -10 9 59 -16 104 -39z m-5318 27 c-3 -3 -12 -4 -19 -1 -8 3 -5 6 6 6
11 1 17 -2 13 -5z m5663 -72 c0 -1 -18 12 -40 29 -22 18 -40 36 -40 42 0 5 18
-8 40 -29 22 -21 40 -40 40 -42z m-5730 50 c-19 -9 -62 -29 -94 -44 -33 -15
-62 -26 -64 -23 -6 6 -9 4 48 32 50 25 119 52 135 52 6 0 -6 -8 -25 -17z
m5395 -42 c3 -6 -1 -7 -9 -4 -18 7 -21 14 -7 14 6 0 13 -4 16 -10z m115 -80
l45 -42 -45 31 c-25 17 -58 42 -75 56 l-30 26 30 -15 c17 -8 50 -33 75 -56z
m-396 21 c43 -28 52 -49 60 -142 4 -47 2 -59 -9 -59 -8 0 -13 6 -10 13 7 22
-40 101 -75 125 -30 20 -36 21 -38 8 -5 -22 -16 -20 -50 9 -45 38 -80 47 -152
41 l-65 -6 40 16 c103 40 236 38 299 -5z m502 17 c19 -23 19 -23 -1 -7 -11 9
-27 19 -35 22 -13 5 -13 6 1 6 9 1 24 -9 35 -21z m-410 -23 c52 -30 71 -52 56
-67 -11 -11 -35 -2 -27 12 4 7 -32 32 -115 78 -24 13 -24 13 10 7 19 -4 53
-18 76 -30z m-4758 8 c13 -5 -7 -8 -56 -9 -51 0 -88 -6 -109 -17 -35 -19 -57
-22 -49 -8 3 5 -2 12 -12 16 -16 6 -15 8 3 21 16 12 40 14 111 10 50 -3 101
-9 112 -13z m-688 2 c0 -2 -10 -9 -22 -15 -22 -11 -22 -10 -4 4 21 17 26 19
26 11z m2043 -2 c-7 -2 -19 -2 -25 0 -7 3 -2 5 12 5 14 0 19 -2 13 -5z m-1647
-30 c-10 -10 -19 5 -10 18 6 11 8 11 12 0 2 -7 1 -15 -2 -18z m1321 21 c-3 -3
-12 -4 -19 -1 -8 3 -5 6 6 6 11 1 17 -2 13 -5z m231 -1 c-10 -2 -28 -2 -40 0
-13 2 -5 4 17 4 22 1 32 -1 23 -4z m-113 -13 c-27 -5 -63 -8 -80 -8 -25 1 -23
2 10 8 22 4 58 7 80 7 38 0 37 0 -10 -7z m4080 -8 c-3 -3 -11 0 -18 7 -9 10
-8 11 6 5 10 -3 15 -9 12 -12z m-1855 -14 c17 -5 8 -6 -24 -2 -27 3 -58 10
-70 14 -26 11 57 1 94 -12z m63 -15 c-7 -2 -19 -2 -25 0 -7 3 -2 5 12 5 14 0
19 -2 13 -5z m847 -33 c10 -6 11 -10 3 -10 -16 0 -132 -55 -157 -75 -16 -12
-17 -17 -6 -30 15 -17 7 -19 -21 -5 -11 6 -19 7 -19 1 0 -5 -10 -8 -23 -7 -17
1 -22 7 -21 26 0 19 8 27 35 34 19 6 59 25 89 43 56 33 93 41 120 23z m-6306
-39 c0 -11 3 -21 7 -21 9 0 -1 -40 -10 -41 -3 0 -16 -2 -28 -5 -28 -5 -31 20
-5 35 14 8 15 13 5 30 -10 15 -10 21 0 24 21 9 32 1 31 -22z m1106 18 c149
-18 315 -65 376 -105 81 -54 169 -146 200 -210 34 -71 43 -185 20 -254 l-15
-45 4 55 c5 53 4 52 -20 -33 -32 -113 -72 -200 -87 -191 -7 5 -8 3 -3 -5 13
-22 -37 -65 -179 -156 -17 -11 -38 -22 -46 -24 -52 -12 -93 -29 -75 -31 11 -1
-4 -9 -33 -18 l-52 -17 151 -212 c168 -237 264 -341 411 -452 126 -95 315
-194 432 -227 141 -40 323 -44 481 -11 152 31 255 71 312 121 49 43 66 42 34
-2 -12 -17 -21 -34 -21 -39 0 -38 -145 -113 -304 -158 -93 -26 -110 -27 -284
-26 -103 0 -207 4 -232 7 -274 35 -608 226 -798 457 -92 112 -95 116 -84 92 6
-11 21 -32 34 -46 12 -14 32 -37 43 -50 17 -20 17 -21 2 -9 -29 22 -177 207
-230 288 -27 39 -50 72 -53 72 -3 0 -2 -6 2 -12 5 -9 2 -9 -9 1 -19 15 -23 36
-5 25 6 -4 -4 14 -22 41 -18 26 -35 43 -39 37 -3 -6 -20 8 -36 30 -27 36 -33
39 -65 34 -19 -3 -43 -6 -53 -6 -14 0 -12 -5 12 -29 16 -15 34 -39 41 -52 33
-65 219 -330 303 -434 115 -141 278 -287 400 -359 27 -15 46 -30 43 -33 -3 -3
-12 0 -20 7 -9 6 -40 26 -69 44 -73 44 -285 224 -337 286 -23 27 -45 48 -49
45 -20 -12 -186 224 -267 380 l-63 120 -43 -1 c-24 0 -37 1 -30 3 6 3 12 9 12
15 0 6 -9 4 -21 -4 -21 -14 -22 -19 -20 -226 3 -231 12 -291 54 -330 25 -24
122 -62 159 -62 13 -1 34 -7 48 -16 l25 -15 -35 5 c-19 2 -80 9 -135 15 -136
16 -224 32 -261 47 -34 14 -36 13 -144 -50 -25 -14 -102 -56 -173 -92 -70 -37
-125 -69 -123 -71 2 -3 14 0 25 7 12 6 21 7 21 2 0 -19 -115 -49 -125 -33 -3
5 41 48 97 95 183 152 192 172 209 467 7 115 16 209 21 209 11 0 10 -376 -2
-420 -5 -19 -12 -46 -16 -60 -6 -24 -6 -24 8 -6 10 13 28 19 58 20 l42 1 19
70 c16 59 18 100 16 257 -2 130 -7 191 -16 201 -6 8 -34 20 -61 27 -32 8 -60
23 -84 47 -42 43 -45 53 -11 53 18 0 26 7 31 27 9 35 -3 423 -16 538 -9 79
-14 94 -40 120 -35 36 -38 49 -11 40 11 -3 57 9 108 29 88 34 128 48 193 66
32 9 31 9 -15 5 -120 -11 -279 -47 -305 -70 -8 -7 -29 -20 -46 -28 -75 -38
-194 -171 -194 -217 0 -12 -4 -18 -10 -15 -24 15 -7 -34 21 -61 46 -43 50 -56
28 -83 l-20 -24 -22 20 c-12 11 -62 43 -111 72 -95 55 -218 94 -294 93 -28 0
-40 3 -35 11 4 7 0 8 -13 4 -12 -5 -8 2 11 18 16 13 49 27 72 31 24 3 54 15
67 25 13 11 28 19 33 19 5 0 25 14 44 31 78 70 192 133 322 179 98 34 333 94
437 110 41 6 82 13 90 15 40 8 335 4 410 -6z m6590 1 c-8 -5 -22 -10 -30 -10
-13 0 -13 1 0 10 8 5 22 10 30 10 13 0 13 -1 0 -10z m-3410 -15 c0 -2 -7 -5
-15 -9 -9 -3 -15 0 -15 9 0 9 6 12 15 9 8 -4 15 -7 15 -9z m4175 -6 l35 -21
-21 -19 c-25 -21 -43 -16 -34 11 3 11 0 20 -10 24 -8 3 -15 10 -15 16 0 14 4
13 45 -11z m90 -8 c9 -16 -9 -20 -23 -5 -10 12 -10 14 2 14 8 0 17 -4 21 -9z
m-6225 -11 c8 -5 11 -10 5 -10 -5 0 -17 5 -25 10 -8 5 -10 10 -5 10 6 0 17 -5
25 -10z m3013 -250 c-2 -134 -8 -247 -13 -280 -3 -17 -28 64 -33 106 -8 71
-56 171 -103 216 -60 57 -92 66 -229 65 -112 -2 -123 -4 -168 -30 -27 -16 -46
-31 -44 -34 3 -3 26 8 52 23 49 28 48 28 221 21 53 -3 66 -7 107 -41 59 -48
98 -110 136 -214 38 -103 22 -97 -30 12 -22 46 -57 100 -80 124 -79 79 -195
117 -284 93 -58 -15 -130 -85 -145 -140 -36 -136 67 -257 344 -405 191 -102
272 -172 325 -281 39 -82 52 -169 40 -286 -9 -95 -31 -139 -102 -207 -52 -49
-76 -65 -62 -42 3 6 1 10 -5 10 -6 0 -8 5 -5 10 3 6 11 10 16 10 6 0 7 -5 3
-12 -4 -7 -3 -8 5 -4 6 4 9 11 6 15 -2 5 7 19 22 32 30 28 83 134 83 167 0 28
-23 29 -50 2 -17 -17 -21 -18 -26 -5 -4 10 -14 -2 -32 -37 -71 -144 -201 -208
-418 -208 -168 0 -262 36 -351 132 -23 25 -49 60 -57 77 -9 17 -21 30 -27 28
-7 -1 -16 12 -21 28 -5 17 -14 40 -20 52 -6 12 -8 35 -6 52 3 17 1 31 -4 31
-4 0 -8 -45 -8 -101 0 -75 4 -110 17 -137 26 -55 91 -115 164 -151 35 -18 71
-36 79 -41 8 -5 41 -13 72 -20 32 -6 61 -16 64 -22 4 -7 2 -8 -4 -4 -6 4 -45
13 -86 21 -111 21 -220 70 -272 123 -63 62 -74 89 -81 195 -9 148 16 189 171
271 37 20 70 36 71 34 2 -2 -3 -21 -10 -42 -8 -22 -11 -44 -8 -49 3 -6 1 -7
-5 -3 -7 4 -12 1 -12 -9 0 -9 4 -13 10 -10 6 4 7 -5 4 -23 -8 -38 11 -136 37
-188 28 -59 88 -118 151 -150 97 -49 267 -42 323 14 63 63 82 168 46 249 -53
116 -156 201 -386 320 -175 90 -241 145 -286 238 -36 76 -51 173 -35 235 35
133 183 265 386 342 71 26 82 28 210 25 99 -2 151 -8 194 -22 l59 -20 41 48
41 47 6 -42 c3 -24 4 -117 2 -208z m-3073 219 l25 -20 -32 16 c-18 8 -33 18
-33 20 0 10 16 4 40 -16z m6130 11 c0 -5 -4 -10 -10 -10 -5 0 -10 5 -10 10 0
6 5 10 10 10 6 0 10 -4 10 -10z m-1873 -17 c2 -6 -8 -13 -22 -15 -27 -6 -32 1
-13 20 14 14 30 11 35 -5z m-6879 -4 c56 -14 132 -69 169 -121 34 -49 25 -58
-20 -19 -19 17 -37 31 -40 31 -3 0 -24 18 -46 40 -36 36 -41 38 -50 22 -6 -9
-11 -12 -11 -7 0 6 -10 16 -22 24 -13 7 12 -20 55 -62 42 -42 77 -82 77 -89 0
-7 -19 6 -41 30 -22 23 -44 42 -49 42 -6 0 -10 4 -10 10 0 5 -9 14 -21 21 -16
8 -11 -4 21 -53 24 -34 49 -68 58 -75 15 -13 10 -43 -8 -43 -5 0 -20 21 -33
48 -43 88 -97 162 -97 133 0 -5 4 -13 10 -16 5 -3 24 -27 40 -53 28 -43 29
-44 3 -12 -40 51 -115 120 -130 120 -27 0 -11 17 25 27 51 14 66 15 120 2z
m3113 -14 c34 -16 34 -16 4 -10 -16 4 -34 11 -39 16 -14 13 -3 11 35 -6z
m2609 -15 c0 -11 -2 -20 -4 -20 -2 0 -6 9 -9 20 -3 11 -1 20 4 20 5 0 9 -9 9
-20z m2220 10 c8 -5 11 -10 5 -10 -5 0 -17 5 -25 10 -8 5 -10 10 -5 10 6 0 17
-5 25 -10z m980 0 c0 -5 -5 -10 -11 -10 -5 0 -7 5 -4 10 3 6 8 10 11 10 2 0 4
-4 4 -10z m-2939 -16 c-24 -17 -111 -47 -118 -40 -2 2 11 9 29 15 18 7 44 18
58 26 36 19 59 18 31 -1z m1528 -3 c-28 -21 -64 -41 -76 -41 -4 0 12 14 37 30
49 33 77 41 39 11z m-5594 -11 c10 -11 16 -20 13 -20 -3 0 -13 9 -23 20 -10
11 -16 20 -13 20 3 0 13 -9 23 -20z m721 9 c11 -18 -12 -31 -63 -36 -49 -6
-54 8 -5 15 15 2 29 6 32 9 3 3 -6 4 -21 1 -14 -2 -31 1 -37 9 -11 11 -4 13
37 13 27 0 53 -5 57 -11z m1232 -11 c4 -20 -29 -33 -39 -16 -9 15 9 40 25 35
6 -2 12 -11 14 -19z m4053 1 l24 -20 -30 17 c-39 24 -40 24 -28 24 6 0 21 -9
34 -21z m-129 -11 c22 -13 49 -28 60 -34 32 -19 68 -57 68 -72 0 -8 10 -31 22
-51 13 -20 22 -37 21 -38 -2 -2 -1 -8 1 -15 11 -36 13 -57 5 -52 -5 3 -9 10
-9 16 0 11 -56 86 -80 106 -8 6 -36 24 -62 40 -53 30 -62 48 -20 38 21 -5 17
0 -20 24 -53 33 -64 49 -18 25 46 -24 49 -17 5 10 -50 31 -29 33 27 3z m101
-11 c15 -10 54 -32 85 -48 51 -26 122 -75 97 -67 -29 9 -194 102 -220 124 -35
29 -7 23 38 -9z m-3513 13 c0 -5 -4 -10 -10 -10 -5 0 -10 5 -10 10 0 6 5 10
10 10 6 0 10 -4 10 -10z m3735 -2 c33 1 67 -2 75 -8 12 -8 11 -10 -7 -10 -13
0 -23 -4 -23 -9 0 -13 43 -19 69 -9 27 10 50 0 30 -13 -8 -5 -31 -9 -52 -9
-23 0 -36 -4 -32 -10 3 -5 0 -10 -7 -10 -15 0 -48 20 -33 20 6 0 -21 16 -60
36 -38 19 -59 31 -45 27 14 -4 52 -6 85 -5z m-4847 -33 c-6 -6 -58 8 -58 16 0
4 14 3 31 -3 16 -6 29 -12 27 -13z m1017 17 c14 -10 12 -59 -3 -74 -9 -9 -12
-9 -12 0 0 7 -6 11 -12 10 -17 -4 -22 40 -8 58 14 16 20 17 35 6z m3837 -60
c28 -11 58 -52 38 -52 -5 0 -10 5 -10 10 0 6 -8 10 -19 10 -10 0 -29 8 -42 18
-13 10 -42 26 -65 36 -22 10 -41 24 -41 31 0 11 15 7 56 -14 31 -15 68 -33 83
-39z m-722 50 c0 -14 -297 -99 -409 -117 -108 -18 -144 -17 -286 11 -110 21
-177 41 -200 60 -19 15 -19 15 10 8 17 -3 37 -6 45 -6 8 0 52 -9 98 -20 46
-11 86 -17 89 -15 2 3 -11 8 -29 12 -57 12 -88 29 -88 49 0 13 3 16 13 9 6 -6
41 -13 77 -17 36 -3 108 -10 160 -15 107 -11 245 -1 380 28 97 21 140 25 140
13z m-4750 -6 c0 -2 -7 -7 -16 -10 -8 -3 -12 -2 -9 4 6 10 25 14 25 6z m3067
-58 c-2 -13 -4 -3 -4 22 0 25 2 35 4 23 2 -13 2 -33 0 -45z m-3712 32 c-3 -4
6 -15 20 -24 34 -22 45 -19 16 4 -29 25 -28 25 42 0 63 -22 87 -25 87 -10 0
18 208 12 258 -7 41 -15 45 -15 56 0 7 9 25 15 43 15 16 -1 36 3 43 7 8 5 11
4 7 -2 -4 -6 -21 -16 -39 -23 -18 -7 -58 -24 -88 -38 -34 -16 -73 -26 -102
-26 -27 0 -48 -3 -48 -8 0 -10 -87 -9 -120 2 -25 8 -25 8 5 10 25 1 21 4 -23
16 -30 8 -57 12 -61 9 -15 -9 -87 36 -104 65 -15 25 -16 29 -3 24 9 -3 14 -10
11 -14z m2395 0 c0 -5 -4 -10 -10 -10 -5 0 -10 5 -10 10 0 6 5 10 10 10 6 0
10 -4 10 -10z m4730 3 c-1 -11 -50 -66 -55 -61 -4 4 43 68 51 68 2 0 4 -3 4
-7z m-3614 -44 c4 -8 1 -8 -14 0 -12 6 -24 16 -28 22 -4 8 -1 8 14 0 12 -6 24
-16 28 -22z m2168 9 l7 -23 10 24 c15 36 20 20 6 -19 -8 -22 -20 -36 -32 -38
-15 -2 -17 -1 -6 7 11 7 11 15 3 40 -6 17 -7 31 -3 31 5 0 12 -10 15 -22z
m1449 -3 c-3 -9 -8 -14 -10 -11 -3 3 -2 9 2 15 9 16 15 13 8 -4z m-4286 -11
c14 -13 14 -17 2 -30 -13 -12 -18 -12 -37 2 -18 12 -20 18 -9 29 16 19 25 18
44 -1z m-308 -159 c-4 -77 -13 -221 -18 -320 -6 -99 -11 -284 -11 -410 l0
-231 60 -27 c33 -14 60 -31 60 -36 0 -13 -130 -2 -147 12 -7 5 -28 11 -45 12
-18 2 -39 3 -45 4 -7 1 -13 8 -13 16 0 7 -8 19 -17 24 -10 6 -12 11 -5 11 8 0
12 18 12 58 0 71 -19 109 -21 42 -1 -25 -4 -35 -6 -23 -4 19 -8 21 -24 13 -27
-15 -28 -133 -1 -150 12 -8 13 -13 5 -16 -7 -3 -13 -12 -13 -20 0 -9 -13 -26
-29 -40 -17 -14 -32 -37 -34 -52 -4 -24 -4 -24 -6 6 0 19 -5 31 -11 27 -16
-10 -11 5 13 38 l22 32 -3 445 c-2 254 -7 458 -13 476 -10 32 -14 34 -103 66
-58 20 -56 35 6 43 146 19 348 85 348 114 0 6 42 32 46 27 0 0 -3 -64 -7 -141z
m-4414 115 c-3 -5 -13 -10 -21 -10 -8 0 -12 5 -9 10 3 6 13 10 21 10 8 0 12
-4 9 -10z m4315 -25 c-25 -13 -52 -24 -60 -24 -8 -1 8 10 35 23 65 32 83 32
25 1z m-840 -31 c0 -17 -22 -14 -28 4 -2 7 3 12 12 12 9 0 16 -7 16 -16z
m2529 -74 c-8 -63 -32 -175 -50 -234 -12 -39 -3 -46 46 -36 39 7 39 8 8 9 -18
0 -33 2 -33 4 0 1 7 22 14 47 14 43 15 44 15 13 1 -19 6 -33 14 -33 8 0 7 -4
-3 -11 -16 -11 141 -6 193 7 41 10 33 -11 -19 -47 -52 -36 -84 -82 -84 -121 0
-16 -4 -28 -10 -28 -5 0 -10 7 -10 15 0 22 -38 38 -75 31 -40 -8 -44 -17 -40
-92 3 -43 2 -49 -3 -24 -6 28 -9 16 -15 -60 -9 -125 11 -291 41 -337 4 -7 36
-16 71 -20 36 -4 66 -13 68 -19 5 -15 -70 -58 -130 -74 -64 -17 -121 -2 -142
40 -8 16 -23 80 -33 142 l-19 113 -7 -50 c-5 -27 -13 -53 -18 -56 -14 -9 -26
-129 -16 -164 4 -15 23 -41 43 -57 19 -16 35 -36 35 -43 0 -7 6 -16 13 -18 6
-3 8 -6 2 -6 -5 0 -28 9 -49 22 -70 40 -72 50 -81 389 -4 167 -10 306 -14 311
-4 4 -46 13 -94 19 -48 6 -85 14 -82 16 3 3 0 11 -5 17 -7 9 6 20 52 40 84 37
211 112 259 153 44 38 117 130 143 180 10 19 19 32 21 30 1 -1 -1 -32 -6 -68z
m2161 40 c0 -5 -13 -2 -30 6 -16 9 -30 17 -30 19 0 2 14 -1 30 -6 17 -6 30
-15 30 -19z m-8270 -112 l23 -33 -24 21 c-13 12 -33 26 -44 32 -20 11 -20 11
1 12 12 0 30 -14 44 -32z m6433 14 c20 -22 12 -62 -12 -62 -26 0 -48 45 -31
65 16 19 23 19 43 -3z m-3459 -174 c-6 -154 9 -387 32 -485 25 -108 88 -205
114 -176 4 4 16 40 25 78 30 121 16 397 -23 455 -28 41 -23 56 22 70 56 17
156 68 153 79 -2 7 78 101 87 101 2 0 2 -39 0 -87 -2 -49 -6 -173 -9 -278 -4
-161 -9 -204 -30 -284 -34 -127 -92 -261 -139 -324 -22 -28 -40 -62 -42 -74
-3 -29 -97 -137 -151 -175 -61 -41 -54 -17 7 26 28 20 54 44 57 54 3 9 18 31
33 47 64 73 167 272 176 343 6 49 5 52 -15 52 -12 0 -24 -8 -28 -17 -8 -24
-48 -114 -85 -188 -60 -121 -209 -285 -260 -285 -10 0 -32 -7 -47 -14 -37 -20
-235 -36 -340 -29 -62 5 -82 3 -77 -5 4 -7 15 -12 24 -12 22 -1 161 -49 143
-49 -17 -1 -149 38 -173 50 -10 5 -15 16 -12 24 5 11 24 15 79 15 67 0 119 8
255 41 119 29 256 140 333 272 32 54 34 66 7 42 -30 -27 -78 -13 -127 38 -50
51 -75 101 -108 209 l-24 83 6 -59 c6 -56 5 -58 -14 -47 -24 12 -33 31 -34 74
0 18 -4 41 -9 52 -15 33 0 -72 21 -160 11 -44 22 -90 23 -103 2 -13 16 -37 32
-54 21 -22 24 -29 11 -25 -10 4 -20 7 -23 7 -10 0 -63 121 -77 175 -9 33 -21
112 -27 175 -21 231 -16 213 -65 253 -24 20 -49 37 -54 37 -6 0 -11 5 -11 10
0 6 -8 10 -17 10 -17 1 -17 1 0 11 10 6 27 9 38 6 31 -8 150 23 211 55 32 17
75 50 95 73 21 24 39 44 40 44 1 1 0 -59 -3 -131z m-2883 95 c13 -16 12 -17
-3 -4 -10 7 -18 15 -18 17 0 8 8 3 21 -13z m6016 -5 c-3 -8 -6 -5 -6 6 -1 11
2 17 5 13 3 -3 4 -12 1 -19z m-2312 2 c-3 -5 -11 -10 -16 -10 -6 0 -7 5 -4 10
3 6 11 10 16 10 6 0 7 -4 4 -10z m100 -79 c80 -62 155 -143 155 -169 0 -5 9
-17 20 -27 18 -16 18 -18 2 -43 -15 -23 -17 -54 -17 -219 0 -179 2 -194 21
-220 32 -43 73 -42 123 3 45 40 53 30 19 -25 -13 -20 -23 -39 -23 -43 0 -3 -4
-10 -9 -15 -5 -5 -6 -3 -2 5 11 19 -9 14 -29 -8 -10 -11 -47 -29 -82 -40 l-64
-20 -39 25 c-22 14 -46 38 -55 55 -16 32 -30 38 -38 18 -4 -10 -8 -10 -14 -1
-6 8 -22 1 -58 -22 -27 -19 -52 -30 -55 -25 -3 5 -32 0 -65 -11 -64 -21 -97
-16 -129 19 -16 19 -16 17 -16 75 -1 40 -1 41 -14 18 -11 -19 -14 -21 -19 -7
-8 20 -21 20 -41 0 -12 -12 -16 -12 -16 -2 -1 7 -9 -3 -19 -22 -21 -39 -14
-65 31 -108 33 -30 137 -92 157 -93 12 0 11 -3 -5 -10 -17 -9 -33 -1 -101 50
-148 111 -170 169 -112 287 50 101 119 166 234 220 52 25 113 51 135 57 l40
12 -25 52 c-28 58 -48 73 -95 73 -37 0 -65 -13 -102 -48 -16 -14 -28 -22 -28
-18 0 5 -6 3 -14 -3 -11 -9 -18 -1 -36 41 -12 29 -33 67 -46 85 -27 35 -27 34
46 48 39 7 159 56 235 97 27 14 52 27 54 27 3 1 46 -30 96 -68z m4071 48 c-14
-11 -32 -19 -39 -16 -6 2 1 11 18 20 42 23 53 21 21 -4z m-1266 1 c0 -5 -6
-10 -14 -10 -8 0 -23 -3 -33 -6 -10 -3 -7 2 7 10 30 18 40 20 40 6z m1320 4
c0 -3 -5 -15 -11 -26 -9 -17 -13 -18 -20 -7 -16 26 -9 -281 10 -421 27 -194
73 -300 130 -300 38 0 79 50 96 115 29 114 39 245 27 357 -10 98 -12 104 -44
131 -44 37 -48 40 -83 56 -24 12 -26 15 -12 19 10 2 32 -1 49 -7 36 -13 152
-13 188 0 16 5 -6 7 -65 4 -49 -2 -99 -1 -110 4 -13 5 19 10 90 13 96 4 118 9
178 37 37 17 71 31 76 31 18 0 20 -32 5 -62 -10 -19 -20 -77 -25 -147 -5 -64
-15 -168 -22 -231 -10 -101 -12 -109 -17 -65 -4 42 -6 46 -13 25 -7 -23 -8
-24 -21 -7 -7 9 -18 17 -25 17 -6 0 -11 10 -12 23 0 12 -13 -27 -28 -88 -28
-113 -96 -305 -136 -385 -56 -110 -196 -271 -320 -365 -77 -59 -221 -135 -300
-158 -27 -8 -73 -24 -100 -35 -102 -40 -217 -55 -425 -56 -193 0 -196 1 -370
41 -408 96 -643 112 -965 64 -141 -21 -238 -27 -355 -21 -74 3 -75 3 -25 10
l50 7 -60 1 c-38 1 -75 9 -100 22 -47 24 -51 25 -35 5 7 -8 8 -15 2 -15 -13 0
-95 99 -110 134 -12 27 -11 30 26 65 55 53 97 49 128 -11 14 -27 14 -32 0 -46
-12 -13 -18 -13 -30 -2 -9 7 -16 19 -16 27 0 21 -54 13 -58 -9 -4 -22 65 -98
105 -115 38 -15 163 -17 248 -3 129 21 364 40 499 40 238 -1 471 -32 846 -113
85 -18 264 -15 333 5 31 10 65 17 75 15 28 -3 173 34 232 60 30 13 75 31 100
40 60 20 180 85 260 142 86 60 150 121 213 201 28 36 69 86 92 111 22 25 45
60 51 76 l11 31 -47 -30 c-59 -37 -116 -51 -133 -34 -7 7 -17 11 -23 9 -18 -6
-90 80 -124 147 -17 34 -39 95 -50 137 -10 42 -24 81 -31 87 -9 8 -10 7 -6 -6
4 -11 0 -21 -10 -26 -23 -13 -18 -132 8 -217 21 -70 42 -106 94 -164 26 -29
27 -32 7 -22 -13 7 -26 19 -29 27 -3 8 -9 14 -15 14 -5 0 -6 -4 -3 -10 3 -5 4
-10 1 -10 -14 0 -83 134 -103 204 -21 69 -25 109 -29 276 l-5 195 -56 51 c-32
30 -53 57 -49 63 4 6 33 11 65 11 32 0 93 9 136 20 43 11 87 18 96 15 9 -3 32
3 51 15 33 20 48 25 48 14z m-5580 -40 c18 -18 0 -18 -25 0 -20 14 -30 12
-154 -29 -60 -21 -63 -12 -4 9 27 10 64 24 83 32 39 15 77 10 100 -12z m4810
22 c0 -3 -27 -21 -60 -42 -33 -20 -60 -39 -60 -41 0 -2 36 15 79 39 44 23 82
40 85 37 3 -2 -1 -24 -7 -47 -7 -24 -16 -40 -20 -36 -4 4 -8 -4 -8 -17 -1 -13
-3 -50 -5 -81 -2 -32 -2 -58 -1 -58 10 0 152 142 152 151 0 12 4 15 57 39 15
7 25 17 22 21 -3 5 2 6 10 3 9 -4 18 1 22 10 18 46 75 -10 104 -103 33 -105
22 -212 -20 -186 -6 4 -22 -3 -35 -15 -13 -12 -31 -20 -39 -17 -8 3 -26 -5
-40 -20 -43 -43 -50 -20 -8 27 32 37 38 49 31 68 -5 12 -16 22 -26 22 -15 0
-16 2 -3 10 19 13 -35 2 -64 -12 -14 -8 -16 -7 -11 2 5 8 3 11 -6 8 -37 -12
-98 -169 -104 -268 -2 -36 -2 -54 1 -40 17 96 39 180 47 180 5 0 6 -8 2 -17
-16 -43 -65 -327 -59 -346 11 -36 43 -64 100 -88 30 -12 53 -23 51 -25 -1 -2
-39 3 -82 11 -107 19 -189 19 -205 0 -18 -22 -119 -65 -153 -65 l-30 0 46 41
c30 26 50 53 57 77 20 73 3 549 -20 577 -6 8 -28 13 -49 13 -41 0 -98 29 -83
44 5 5 35 13 67 18 61 10 129 30 123 36 -2 2 -26 -3 -53 -11 -26 -8 -67 -14
-89 -14 -37 1 -35 2 24 14 79 16 162 47 215 80 43 26 45 27 45 21z m-488 -47
c72 -49 141 -116 133 -129 -3 -5 4 -29 16 -52 66 -128 65 -323 -2 -455 -45
-89 -75 -111 -33 -25 33 68 55 154 38 151 -29 -5 -44 3 -45 24 0 21 -1 21 -8
2 -5 -11 -12 -42 -16 -69 -8 -55 -84 -175 -117 -184 -10 -2 -18 -7 -18 -11 0
-4 -18 -15 -41 -25 -22 -10 -45 -29 -51 -42 -6 -13 -15 -24 -20 -24 -5 0 -7 4
-4 9 3 5 -8 14 -24 21 -55 23 -154 141 -202 239 -40 84 -62 115 -51 72 3 -14
0 -19 -14 -18 -10 1 -22 7 -26 12 -5 6 -7 -13 -4 -41 5 -65 36 -126 95 -186
53 -55 46 -63 -13 -16 l-40 31 40 -43 40 -44 -43 33 c-58 45 -87 86 -106 150
-32 110 -12 330 39 416 38 64 75 93 186 140 104 44 125 63 29 25 -53 -21 -81
-26 -64 -12 16 15 125 52 152 52 15 1 43 9 62 20 19 11 39 19 43 20 4 0 35
-19 69 -41z m1886 26 c12 -10 -52 -9 -74 1 -27 13 -26 13 21 7 28 -3 51 -7 53
-8z m-5358 -9 c0 -2 -7 -7 -16 -10 -8 -3 -12 -2 -9 4 6 10 25 14 25 6z m-857
-20 c52 -21 153 -121 172 -168 50 -125 52 -351 5 -431 -26 -43 -35 -47 -26
-12 9 35 -16 60 -44 45 -11 -6 -20 -16 -20 -23 0 -23 -99 -150 -132 -170 -18
-11 -50 -31 -71 -45 -30 -20 -40 -23 -47 -13 -4 8 -13 10 -19 6 -22 -13 -151
143 -213 258 -35 65 -38 68 -32 33 6 -36 6 -38 -14 -27 -11 6 -23 16 -25 23
-3 7 -6 -5 -6 -26 -1 -57 55 -152 131 -220 34 -30 60 -58 56 -61 -3 -3 -19 6
-36 20 -31 26 -48 33 -37 15 3 -5 2 -10 -2 -10 -13 0 -84 75 -87 91 -2 8 -18
46 -37 84 -32 67 -34 75 -34 180 0 101 3 117 33 191 39 97 73 131 187 187 88
44 207 86 243 87 12 0 37 -6 55 -14z m337 4 c-8 -5 -22 -9 -30 -9 -10 0 -8 3
5 9 27 12 43 12 25 0z m5780 0 c0 -5 -5 -10 -11 -10 -5 0 -7 5 -4 10 3 6 8 10
11 10 2 0 4 -4 4 -10z m-2357 -7 c-7 -2 -19 -2 -25 0 -7 3 -2 5 12 5 14 0 19
-2 13 -5z m-3506 -19 c-3 -3 -12 -4 -19 -1 -8 3 -5 6 6 6 11 1 17 -2 13 -5z
m488 -3 c-3 -5 -22 -15 -43 -22 -20 -6 -40 -17 -44 -23 -4 -6 -10 -7 -15 -2
-9 9 18 26 67 42 19 7 36 12 38 13 2 1 1 -3 -3 -8z m5613 -81 c-3 -44 -3 -80
0 -80 3 0 11 8 19 18 12 15 14 4 9 -88 -2 -58 -9 -118 -14 -135 -5 -16 -15
-55 -22 -85 -16 -70 -69 -201 -71 -175 0 12 -5 5 -10 -15 -5 -19 -13 -42 -18
-50 -14 -25 -24 -88 -12 -70 9 12 11 9 11 -14 0 -60 -22 -156 -36 -156 -17 0
-36 -37 -70 -132 -14 -40 -30 -77 -36 -83 -5 -5 3 22 17 60 39 104 112 413
150 640 19 110 43 250 55 310 11 61 20 116 20 123 0 6 3 12 6 12 4 0 4 -36 2
-80z m-6638 65 c0 -2 -10 -9 -22 -15 -22 -11 -22 -10 -4 4 21 17 26 19 26 11z
m6780 -236 c-12 -74 -31 -183 -43 -244 -19 -98 -22 -106 -27 -70 -5 37 -6 38
-13 15 -5 -15 -10 -20 -14 -12 -2 6 -10 9 -16 5 -6 -4 -8 0 -4 10 3 9 3 18 -1
21 -9 5 -19 -27 -59 -198 -15 -65 -33 -126 -40 -135 -8 -11 -8 3 3 49 8 36 17
72 20 80 3 8 14 53 24 100 63 297 92 413 105 426 8 9 15 21 15 28 0 9 9 12 24
9 20 -4 25 0 31 27 4 17 9 29 11 27 3 -3 -4 -65 -16 -138z m-8717 9 c9 -7 22
-40 29 -73 6 -33 14 -62 18 -65 11 -8 21 -59 30 -150 5 -47 11 -101 14 -120 6
-34 6 -35 -7 -8 -7 14 -20 34 -28 45 -25 28 -81 171 -94 238 -2 11 -8 44 -14
74 -9 43 -8 56 1 63 18 11 32 10 51 -4z m146 -167 c1 -14 7 -32 14 -40 12 -14
19 -48 42 -191 4 -27 3 -30 -4 -15 -5 11 -10 33 -10 49 -1 22 -5 27 -17 22
-39 -15 -87 103 -98 238 -5 62 -4 68 14 73 12 3 20 14 21 27 1 26 38 -129 38
-163z m7002 148 c-5 -13 -10 -19 -10 -12 -1 15 10 45 15 40 3 -2 0 -15 -5 -28z
m-7082 -94 c1 -17 -1 -17 -9 -5 -5 8 -9 35 -9 60 l1 45 9 -40 c4 -22 8 -49 8
-60z m8968 -22 c-3 -10 -5 -4 -5 12 0 17 2 24 5 18 2 -7 2 -21 0 -30z m-3180
-20 c-3 -10 -5 -2 -5 17 0 19 2 27 5 18 2 -10 2 -26 0 -35z m-6200 -120 c-7
-150 -25 -256 -67 -388 -23 -71 -65 -145 -83 -145 -6 0 -6 4 1 13 25 31 88
308 109 487 9 74 20 137 25 138 4 2 8 12 8 23 0 10 3 19 6 19 4 0 4 -66 1
-147z m9452 -303 c12 -58 28 -124 35 -147 19 -56 5 -63 -69 -33 -112 44 -299
68 -350 46 -14 -6 -12 -3 5 10 14 10 31 24 39 32 24 23 -39 2 -79 -26 l-35
-26 31 33 c50 52 162 66 260 33 39 -14 51 -15 47 -5 -3 7 -11 13 -19 13 -7 0
-18 8 -23 18 -5 10 -28 27 -50 37 -35 15 -48 16 -98 6 -43 -8 -59 -8 -64 1 -5
8 -12 7 -24 -5 -9 -10 -19 -17 -23 -17 -4 0 8 14 26 32 29 29 39 33 102 36
l71 4 37 -39 38 -40 -18 136 c-9 75 -17 168 -17 206 l1 70 15 -100 c13 -90 17
-128 22 -202 0 -13 6 -22 13 -20 8 1 15 -18 19 -51 7 -51 19 -83 19 -49 0 30
18 18 24 -17 8 -42 36 -71 36 -37 0 28 -16 133 -41 277 -22 129 -24 177 -7
204 11 17 16 -1 34 -127 12 -82 32 -195 43 -253z m-873 289 c-8 -35 -14 -56
-15 -47 -1 23 20 120 25 115 2 -2 -2 -33 -10 -68z m-8515 -118 c-19 -223 -25
-255 -63 -303 -37 -49 -48 -58 -66 -58 -9 0 -8 9 5 33 9 17 16 36 15 40 -1 5
2 6 7 2 14 -8 51 77 51 118 0 19 6 70 14 113 8 44 20 112 27 153 19 110 24 67
10 -98z m9069 84 c5 3 13 -2 19 -12 7 -14 3 -25 -15 -46 -13 -16 -24 -23 -24
-18 0 6 -7 11 -14 11 -11 0 -15 11 -13 39 1 35 3 38 19 30 10 -6 23 -7 28 -4z
m-8907 -4 c5 -1 5 -6 1 -12 -5 -8 1 -10 20 -7 31 6 33 -4 5 -41 -15 -21 -27
-27 -44 -23 -36 6 -49 26 -35 52 6 11 9 24 6 29 -3 4 5 6 17 5 12 -1 26 -3 30
-3z m9157 -213 c0 -27 -4 -48 -9 -48 -7 0 -12 36 -26 190 l-5 55 20 -75 c10
-41 19 -96 20 -122z m-4910 152 c0 -5 -2 -10 -4 -10 -3 0 -8 5 -11 10 -3 6 -1
10 4 10 6 0 11 -4 11 -10z m4720 6 c0 -3 -4 -8 -10 -11 -5 -3 -10 -1 -10 4 0
6 5 11 10 11 6 0 10 -2 10 -4z m-8795 -126 c10 -19 26 -43 36 -53 17 -16 19
-16 19 -2 0 9 6 15 13 13 11 -4 35 -77 50 -157 6 -30 5 -32 -10 -20 -15 12
-16 12 -11 -3 6 -13 1 -16 -25 -15 -26 2 -33 7 -40 32 -5 17 -16 45 -24 64
-15 36 -44 174 -42 206 1 16 2 15 8 -5 5 -14 16 -41 26 -60z m162 48 c-3 -8
-6 -5 -6 6 -1 11 2 17 5 13 3 -3 4 -12 1 -19z m-567 -80 c-6 -37 -15 -68 -20
-68 -4 0 -4 19 1 43 5 23 12 60 15 82 4 22 9 34 12 26 3 -8 -1 -45 -8 -83z
m469 42 c0 -9 -4 -8 -9 5 -5 11 -9 27 -9 35 0 9 4 8 9 -5 5 -11 9 -27 9 -35z
m4722 -47 c8 -10 -10 2 -38 26 -29 24 -53 46 -53 48 0 7 75 -54 91 -74z
m-1163 21 c-10 -10 -28 6 -28 24 0 15 1 15 17 -1 9 -9 14 -19 11 -23z m4493 9
c-12 -20 -14 -14 -5 12 4 9 9 14 11 11 3 -2 0 -13 -6 -23z m-7915 -67 c8 -28
14 -64 13 -81 l0 -30 -14 26 c-12 22 -35 133 -35 164 1 20 23 -29 36 -79z
m2484 42 c0 -12 -28 3 -34 18 -4 11 -2 12 14 1 11 -6 20 -15 20 -19z m1140 -3
c-14 -8 -34 -14 -45 -14 -15 0 -13 3 10 14 40 18 67 18 35 0z m-3984 -11 c19
-9 37 -21 40 -26 4 -6 -3 -5 -14 1 -11 6 -45 11 -76 11 -48 0 -58 -4 -86 -31
-17 -17 -33 -29 -36 -26 -9 9 5 26 48 58 47 33 75 36 124 13z m4222 4 c-16 -5
-28 -14 -28 -19 0 -5 -5 -9 -10 -9 -23 0 14 36 39 37 l26 2 -27 -11z m-238
-37 c-6 -12 -16 -19 -21 -15 -6 4 -4 13 7 25 21 24 29 18 14 -10z m3831 12
c13 -16 12 -17 -3 -4 -10 7 -18 15 -18 17 0 8 8 3 21 -13z m-2586 -3 c-3 -5
-12 -10 -18 -10 -7 0 -6 4 3 10 19 12 23 12 15 0z m3006 -37 c-12 -20 -14 -14
-5 12 4 9 9 14 11 11 3 -2 0 -13 -6 -23z m-7922 -58 c5 -28 13 -58 16 -67 4
-10 3 -18 -2 -18 -12 0 -30 53 -39 110 -9 63 13 41 25 -25z m3605 40 c-7 -17
-39 -20 -49 -6 -3 5 5 12 17 14 13 2 26 5 30 6 4 0 5 -6 2 -14z m-3890 -16 c8
-8 5 -10 -12 -4 -13 4 -45 11 -70 16 -46 8 -46 8 12 4 32 -2 64 -9 70 -16z
m-139 1 c-3 -5 -12 -10 -18 -10 -7 0 -6 4 3 10 19 12 23 12 15 0z m137 -41
c15 -10 31 -19 36 -19 5 0 16 -7 23 -17 13 -15 12 -15 -10 -3 -34 17 -165 21
-220 5 -25 -7 -59 -16 -74 -19 -28 -7 -28 -6 -12 18 37 56 196 78 257 35z
m8178 23 c0 -5 -7 -17 -15 -28 -14 -18 -14 -17 -4 9 12 27 19 34 19 19z
m-5735 -41 c5 -8 -20 -41 -31 -41 -2 0 -4 11 -4 25 0 25 23 35 35 16z m1996
-48 c24 -25 121 -70 224 -102 117 -38 316 -151 404 -231 56 -51 60 -58 59 -95
l-1 -40 -4 36 c-3 26 -10 38 -24 42 -24 7 -24 6 -38 -83 -20 -127 -19 -126
-39 -106 -14 13 -14 20 -4 36 6 11 12 41 12 68 0 26 6 54 12 60 18 18 -8 33
-39 21 -15 -5 -23 -5 -23 2 0 14 -135 140 -168 158 -44 23 -190 70 -301 97
l-103 25 -92 -21 c-200 -46 -279 -83 -380 -178 -42 -40 -46 -47 -46 -91 0 -62
45 -239 80 -318 42 -93 223 -273 393 -391 l48 -34 32 24 c18 14 39 27 47 31
18 8 95 65 171 125 30 24 86 85 126 135 67 85 83 114 128 240 21 60 29 55 14
-9 -6 -27 -12 -70 -13 -96 -2 -25 -10 -58 -19 -72 -21 -32 -22 -42 -2 -26 13
11 14 10 9 -4 -4 -10 -12 -15 -19 -13 -6 3 -30 -19 -53 -48 -43 -55 -54 -77
-27 -55 12 10 15 10 15 0 0 -23 -109 -145 -119 -134 -4 3 3 13 14 22 11 10 31
33 44 52 13 19 -20 -8 -75 -61 -54 -53 -119 -109 -144 -124 -25 -16 -58 -39
-73 -51 -29 -24 -53 -32 -42 -14 4 6 -7 10 -25 10 -22 0 -43 11 -74 40 -24 22
-46 40 -50 40 -3 0 -14 7 -23 14 -10 8 -49 39 -87 68 -116 89 -247 281 -297
437 -30 95 -39 156 -24 156 9 0 11 -9 14 -58 1 -11 5 -15 13 -11 8 5 9 2 5 -9
-3 -10 -3 -17 2 -17 5 0 11 -23 15 -51 7 -51 65 -181 86 -194 7 -4 3 10 -8 31
-33 66 -90 273 -94 346 l-2 36 -44 -4 c-41 -4 -105 -34 -72 -34 11 0 16 -16
18 -63 6 -115 26 -174 108 -314 46 -78 63 -120 45 -109 -6 4 -11 12 -11 18 0
5 -23 49 -51 95 -53 87 -94 193 -105 267 -3 22 -12 63 -20 89 l-13 48 39 35
c21 19 50 44 64 55 14 11 23 25 20 32 -5 13 66 77 84 77 6 0 41 14 79 31 100
45 233 95 274 103 25 4 36 12 35 23 0 9 5 18 12 20 8 3 10 -1 6 -12 -6 -15 -4
-15 15 -3 12 7 24 23 27 36 8 29 24 28 55 -5z m2813 -4 c24 -48 -1 -77 -52
-58 -27 10 -28 23 -1 60 26 37 34 36 53 -2z m-2111 -6 c-29 -2 -77 -2 -105 0
-29 2 -6 3 52 3 58 0 81 -1 53 -3z m-1332 -86 c23 -15 35 -32 37 -51 4 -32
-15 -86 -30 -86 -6 0 -18 -10 -28 -23 -24 -30 -103 -72 -192 -103 -56 -19 -83
-23 -120 -18 -27 4 -47 9 -44 11 2 3 35 6 73 8 37 2 86 11 108 20 l40 15 -40
-5 c-43 -5 -176 -8 -318 -6 -62 1 -86 4 -81 12 3 6 1 15 -6 19 -8 5 0 12 25
20 29 10 65 10 164 1 232 -21 391 24 391 111 0 41 -24 45 -66 9 -35 -28 -66
-34 -46 -8 5 7 21 31 36 55 30 48 48 52 97 19z m-988 -4 c-7 -20 -22 -33 -40
-33 -7 0 -2 11 10 24 27 29 39 32 30 9z m4254 -33 c123 -29 323 -108 277 -109
-11 -1 -25 -6 -32 -13 -22 -22 -50 -18 -151 23 -127 50 -201 59 -501 55 -178
-3 -234 -7 -269 -20 -24 -9 -65 -16 -90 -16 -26 0 -51 -4 -57 -10 -5 -5 -27
-7 -48 -3 -28 4 -34 8 -23 14 28 16 194 68 238 74 24 4 48 9 53 12 18 12 217
21 363 18 108 -3 178 -10 240 -25z m-6300 14 c-3 -3 -12 -4 -19 -1 -8 3 -5 6
6 6 11 1 17 -2 13 -5z m4890 -25 c12 -12 6 -49 -8 -49 -9 0 -29 33 -29 49 0
14 23 14 37 0z m-1233 -5 c9 -3 16 -12 16 -19 0 -18 104 -121 154 -153 27 -18
40 -33 38 -44 -3 -15 -26 -17 -227 -18 -203 0 -265 6 -219 24 9 3 14 13 10 21
-3 9 6 21 24 32 16 9 27 20 24 25 -5 8 9 12 33 9 6 -1 22 13 36 31 41 56 41
65 -1 22 -23 -23 -43 -39 -46 -36 -7 6 -88 -28 -97 -41 -11 -16 -74 -25 -86
-12 -15 16 6 41 51 60 42 18 48 7 10 -16 -15 -9 -22 -19 -17 -22 6 -4 24 8 41
25 20 18 43 31 61 32 38 2 90 44 70 57 -9 6 -1 9 26 9 22 0 47 5 55 10 18 11
23 12 44 4z m-1717 -20 c-3 -3 -12 -4 -19 -1 -8 3 -5 6 6 6 11 1 17 -2 13 -5z
m1813 -2 c0 -5 42 -25 94 -46 59 -24 93 -43 90 -51 -3 -6 2 -18 11 -25 24 -20
18 -40 -11 -40 -25 0 -138 72 -129 82 3 3 -17 17 -44 31 -26 15 -54 34 -61 42
-11 13 -8 15 19 15 17 0 31 -4 31 -8z m3856 -40 c-24 -47 -44 -112 -35 -112 5
0 9 3 9 8 0 4 10 18 21 32 l20 25 -15 -38 c-21 -51 -98 -144 -160 -191 -58
-44 -211 -146 -220 -146 -3 0 -10 9 -16 20 -9 16 -8 18 5 14 10 -4 34 11 68
42 29 27 86 78 128 113 75 62 134 138 180 234 13 27 25 44 27 38 2 -5 -4 -23
-12 -39z m-7358 -14 c-7 -19 -38 -22 -38 -4 0 10 9 16 21 16 12 0 19 -5 17
-12z m706 -27 c73 -56 170 -102 152 -72 -3 5 40 -9 96 -31 57 -22 126 -48 153
-58 28 -10 42 -19 32 -19 -9 -1 -45 10 -79 24 -34 14 -66 25 -72 25 -20 -1 21
-19 110 -49 49 -17 80 -31 68 -31 -61 0 -385 138 -471 202 -29 21 -53 41 -53
43 0 11 16 3 64 -34z m6206 26 c0 -2 -10 -12 -22 -23 l-23 -19 19 23 c18 21
26 27 26 19z m-7681 -60 c0 -21 -1 -21 -9 -2 -12 28 -12 37 0 30 6 -3 10 -16
9 -28z m4511 13 c13 -8 13 -10 -2 -10 -9 0 -20 5 -23 10 -8 13 5 13 25 0z
m-4455 -22 c27 -12 34 -38 11 -38 -16 0 -46 26 -46 41 0 12 4 11 35 -3z m761
-3 c8 -19 -13 -45 -36 -45 -23 0 -34 28 -19 46 15 19 48 18 55 -1z m3739 5 c3
-5 2 -10 -4 -10 -5 0 -13 5 -16 10 -3 6 -2 10 4 10 5 0 13 -4 16 -10z m-1060
-40 c-10 -11 -21 -18 -23 -15 -3 3 3 12 14 20 27 20 30 18 9 -5z m-3033 -173
c53 -42 100 -82 104 -88 4 -8 9 -7 15 2 6 10 9 8 9 -8 0 -32 19 -21 60 35 54
72 131 152 172 178 52 33 59 30 12 -4 -21 -16 -46 -37 -54 -48 -8 -10 8 -2 35
17 69 49 145 93 151 86 3 -3 -34 -32 -83 -65 -48 -33 -130 -101 -182 -151 -52
-50 -100 -91 -106 -91 -11 0 -78 42 -110 70 -11 10 -33 26 -50 36 l-30 18 20
-24 20 -24 -30 21 c-16 12 -65 55 -108 97 -73 71 -86 96 -51 96 8 0 14 5 14
12 0 6 21 -11 48 -38 26 -27 91 -84 144 -127z m5414 142 c60 -6 114 -15 119
-21 7 -8 4 -9 -10 -4 -37 14 -225 20 -248 8 -12 -6 -65 -20 -118 -30 -74 -16
-117 -32 -190 -72 -52 -29 -103 -60 -114 -71 -11 -10 -36 -25 -56 -33 -20 -8
-56 -30 -80 -49 -60 -45 -68 -49 -65 -35 7 32 21 50 48 64 16 9 28 18 25 21
-7 6 -46 -14 -72 -37 -66 -57 -72 -45 -10 19 110 114 212 180 326 211 140 37
273 46 445 29z m-5771 -19 c3 -5 15 -10 26 -10 35 0 112 -50 184 -119 79 -76
144 -123 209 -150 38 -17 44 -23 42 -45 -2 -18 2 -26 13 -26 14 -1 14 -2 -1
-14 -13 -10 -15 -15 -6 -24 9 -9 9 -12 -1 -12 -13 0 -50 39 -51 54 0 4 7 5 16
2 8 -3 12 -2 9 4 -7 11 -53 3 -72 -12 -18 -14 -209 110 -315 205 -88 78 -128
127 -94 114 12 -5 16 0 16 18 0 25 14 33 25 15z m7355 5 c0 -2 -13 -11 -30
-20 -38 -19 -40 -11 -2 9 31 17 32 18 32 11z m-1390 -19 c25 -8 36 -15 25 -15
-21 1 -98 27 -80 28 6 0 30 -6 55 -13z m-2852 -16 c54 -24 78 -43 170 -132 70
-68 95 -105 50 -74 -12 9 -32 16 -43 16 -11 0 -40 9 -64 20 -54 25 -64 20 -19
-9 49 -31 26 -25 -45 11 -34 17 -70 31 -80 29 -9 -1 -20 6 -24 16 -4 10 -24
39 -45 64 -21 25 -38 50 -38 57 0 9 21 15 80 20 8 1 34 -7 58 -18z m2006 -6
c4 -11 -14 -35 -61 -80 -38 -35 -77 -66 -88 -70 -11 -3 -28 -13 -37 -21 -9 -8
-25 -13 -35 -10 -15 4 -14 6 7 13 l25 8 -29 7 c-33 9 -86 -12 -128 -50 -41
-37 -34 -13 9 31 20 21 33 38 27 38 -5 0 -16 -6 -23 -12 -11 -11 -12 -9 -2 8
13 26 134 118 182 138 48 21 145 21 153 0z m-2280 -9 c25 -8 57 -22 73 -31
l28 -18 -20 24 c-21 26 -19 25 60 -35 28 -21 42 -36 33 -32 -10 3 14 -23 52
-60 69 -65 89 -94 50 -73 -11 6 -25 8 -30 5 -6 -4 -24 5 -41 20 -34 28 -51 27
-28 -2 12 -15 12 -16 -1 -8 -48 27 -153 99 -205 139 -32 26 -75 51 -95 56 -19
5 -51 14 -70 19 -28 7 -17 9 57 9 51 0 113 -6 137 -13z m51 5 c3 -6 -1 -7 -9
-4 -18 7 -21 14 -7 14 6 0 13 -4 16 -10z m-1010 -10 c3 -6 -1 -7 -9 -4 -18 7
-21 14 -7 14 6 0 13 -4 16 -10z m42 -16 c-3 -3 -12 -4 -19 -1 -8 3 -5 6 6 6
11 1 17 -2 13 -5z m192 -20 c9 -8 -135 -2 -159 6 -14 5 13 6 65 3 50 -3 92 -7
94 -9z m114 -1 c-13 -2 -33 -2 -45 0 -13 2 -3 4 22 4 25 0 35 -2 23 -4z m-300
-10 c-7 -2 -19 -2 -25 0 -7 3 -2 5 12 5 14 0 19 -2 13 -5z m2784 -45 c-3 -8
-6 -5 -6 6 -1 11 2 17 5 13 3 -3 4 -12 1 -19z m978 -5 c-57 -29 -119 -84 -143
-128 -9 -16 -19 -61 -22 -100 l-5 -70 -26 49 c-24 45 -27 47 -42 31 -9 -9 -21
-13 -27 -10 -5 3 -10 -3 -10 -15 0 -12 -4 -18 -10 -15 -17 10 -11 95 11 154
22 62 44 92 76 110 28 15 33 14 33 -4 0 -9 9 -15 25 -15 14 0 25 -5 25 -11 0
-6 13 -1 30 11 16 12 34 19 39 16 5 -3 24 1 42 9 55 24 58 16 4 -12z m763 20
c-10 -2 -26 -2 -35 0 -10 3 -2 5 17 5 19 0 27 -2 18 -5z m-3847 -18 c86 -31
127 -101 114 -195 -6 -40 -10 -47 -25 -43 -10 3 -17 10 -16 16 2 7 1 9 -1 5
-3 -5 -14 -8 -24 -8 -13 0 -25 -11 -34 -32 -7 -18 -25 -44 -39 -58 l-27 -24
16 37 c8 20 15 47 15 61 0 42 -40 119 -81 160 -45 43 -45 55 1 36 37 -15 51
-6 24 15 -19 15 -19 15 1 13 14 -2 19 2 17 15 -4 21 4 21 59 2z m3972 8 c-7
-2 -19 -2 -25 0 -7 3 -2 5 12 5 14 0 19 -2 13 -5z m150 -10 c-7 -2 -19 -2 -25
0 -7 3 -2 5 12 5 14 0 19 -2 13 -5z m120 0 c-13 -2 -35 -2 -50 0 -16 2 -5 4
22 4 28 0 40 -2 28 -4z m703 -50 c15 -20 23 -33 16 -29 -13 8 -56 66 -49 66 3
0 17 -17 33 -37z m294 33 c0 -2 -8 -10 -17 -17 -16 -13 -17 -12 -4 4 13 16 21
21 21 13z m-6822 -37 c33 -39 45 -59 40 -65 -9 -8 -68 28 -88 54 -20 25 -20
27 -3 33 10 4 19 8 21 8 2 1 15 -13 30 -30z m3668 -25 c-8 -21 -15 -33 -15
-25 -1 19 23 85 26 74 2 -5 -3 -27 -11 -49z m1354 47 c0 -6 -21 -13 -46 -17
-39 -5 -170 -39 -238 -61 -12 -4 -17 -2 -12 5 10 17 115 53 196 67 96 17 100
17 100 6z m647 -7 c-3 -3 -12 -4 -19 -1 -8 3 -5 6 6 6 11 1 17 -2 13 -5z
m-5077 -7 c0 -2 -27 -25 -60 -50 -33 -26 -60 -46 -60 -44 0 11 54 74 73 84 21
12 47 17 47 10z m4717 -3 c-3 -3 -12 -4 -19 -1 -8 3 -5 6 6 6 11 1 17 -2 13
-5z m137 -10 c26 -9 45 -18 43 -21 -5 -5 -107 27 -107 33 0 7 16 4 64 -12z
m1106 -62 c0 -3 -16 9 -35 28 -19 19 -35 38 -35 43 0 4 16 -8 35 -29 19 -20
35 -39 35 -42z m220 62 c-8 -8 -23 -20 -34 -25 -13 -6 -10 0 9 15 34 29 43 33
25 10z m-3189 -41 c-6 -21 -17 -47 -26 -58 -14 -19 -14 -18 -8 15 7 39 32 94
39 87 3 -3 1 -22 -5 -44z m1766 41 c-3 -3 -12 -4 -19 -1 -8 3 -5 6 6 6 11 1
17 -2 13 -5z m533 -4 c0 -13 -11 -13 -30 0 -12 8 -11 10 8 10 12 0 22 -4 22
-10z m80 -20 c8 -5 11 -10 5 -10 -5 0 -17 5 -25 10 -8 5 -10 10 -5 10 6 0 17
-5 25 -10z m110 -10 c0 -12 -13 -28 -32 -40 -49 -29 -53 -25 -17 20 36 45 49
50 49 20z m-4154 -18 c-4 -3 -14 2 -24 12 -16 18 -16 18 6 6 13 -6 21 -14 18
-18z m2189 8 c-3 -5 -11 -10 -16 -10 -6 0 -7 5 -4 10 3 6 11 10 16 10 6 0 7
-4 4 -10z m685 -4 c0 -7 -131 -78 -136 -73 -2 2 26 20 63 40 73 39 73 39 73
33z m1795 -6 c3 -5 1 -10 -4 -10 -6 0 -11 5 -11 10 0 6 2 10 4 10 3 0 8 -4 11
-10z m-4836 -55 c0 -5 -6 -1 -14 9 -8 11 -15 24 -15 30 0 5 7 1 15 -10 8 -10
14 -23 14 -29z m616 -125 c22 -23 75 -69 118 -102 42 -33 77 -62 77 -65 0 -12
-143 82 -192 127 -18 17 -45 39 -61 48 -15 9 -25 22 -23 29 3 7 -18 38 -47 70
l-52 58 70 -62 c39 -34 88 -80 110 -103z m1535 156 c0 -2 -8 -10 -17 -17 -16
-13 -17 -12 -4 4 13 16 21 21 21 13z m-1720 -52 c64 -49 79 -64 58 -64 -13 1
-137 110 -125 110 4 0 34 -20 67 -46z m1910 24 c0 -16 -3 -19 -11 -11 -6 6 -8
16 -5 22 11 17 16 13 16 -11z m-1052 6 c24 -5 35 -16 52 -52 24 -49 22 -68
-13 -145 -18 -40 -26 -47 -46 -45 -35 4 -63 65 -69 147 -3 54 -1 70 13 84 19
19 20 19 63 11z m1281 -41 c-28 -29 -131 -60 -115 -34 4 5 24 12 45 16 22 4
46 14 53 23 11 14 10 15 -7 8 -55 -22 -118 -34 -138 -26 -20 8 -19 9 8 9 17 1
57 12 90 25 44 18 63 22 73 14 10 -9 8 -16 -9 -35z m-2339 4 c0 -5 -4 -5 -10
-2 -5 3 -10 14 -10 23 0 15 2 15 10 2 5 -8 10 -19 10 -23z m3710 -13 c0 -13
-4 -24 -10 -24 -5 0 -10 14 -10 31 0 17 4 28 10 24 6 -3 10 -17 10 -31z
m-3827 5 c30 0 31 -1 9 -10 -13 -5 -29 -6 -34 -2 -6 3 -8 1 -5 -4 9 -15 69
-25 77 -13 4 6 19 5 43 -2 55 -17 26 -27 -57 -21 -67 5 -153 32 -128 41 7 2
12 10 12 18 0 10 6 11 26 4 14 -6 40 -10 57 -11z m1937 -35 c-46 -46 -120
-101 -314 -234 -58 -40 31 41 105 95 45 33 120 90 167 128 47 37 88 67 91 67
3 0 -19 -25 -49 -56z m104 25 c-33 -34 -173 -132 -249 -173 -27 -15 -39 -19
-25 -9 14 10 52 38 85 63 33 25 72 50 86 56 14 7 47 30 73 53 56 48 72 54 30
10z m-4513 -11 c6 -13 21 -31 33 -40 15 -13 17 -18 6 -17 -18 0 -52 24 -44 32
3 3 -4 8 -15 12 -12 3 -21 13 -21 21 0 22 28 16 41 -8z m4769 -16 c8 -3 -10
-9 -40 -12 -63 -6 -75 -3 -61 14 10 12 71 11 101 -2z m-2630 -22 c0 -30 -51
-100 -74 -100 -6 0 -4 5 4 11 11 8 12 12 3 16 -10 4 -10 9 2 26 8 12 12 31 9
44 -6 24 9 32 22 12 5 -8 10 -6 16 5 13 23 18 20 18 -14z m3042 13 c-8 -13 -3
-20 21 -32 41 -21 57 -48 37 -61 -42 -27 -121 18 -119 68 0 27 0 27 11 5 13
-26 27 -30 29 -8 1 8 3 20 4 25 1 6 3 12 4 15 0 3 6 5 11 5 7 0 8 -6 2 -17z
m73 -3 c3 -5 -3 -10 -14 -10 -12 0 -21 5 -21 10 0 6 6 10 14 10 8 0 18 -4 21
-10z m-3290 -40 c-3 -5 -10 -10 -16 -10 -5 0 -9 5 -9 10 0 6 7 10 16 10 8 0
12 -4 9 -10z m3335 -25 c-7 -9 -15 -13 -17 -11 -7 7 7 26 19 26 6 0 6 -6 -2
-15z m-2494 -65 c80 -27 150 -54 157 -60 6 -5 22 -18 33 -28 12 -9 25 -30 28
-45 6 -26 5 -27 -13 -18 -25 14 -44 14 -36 0 4 -5 -8 -4 -27 4 -18 8 -71 31
-116 51 -46 20 -87 36 -92 36 -4 0 -45 18 -91 40 l-84 41 48 -3 c49 -3 55 0
35 20 -21 21 8 14 158 -38z m1901 33 c-4 -4 -47 -26 -95 -49 -58 -29 -79 -43
-63 -44 34 0 21 -9 -22 -14 -20 -3 -71 -21 -113 -40 -42 -20 -94 -41 -116 -47
-22 -5 -47 -13 -56 -16 -9 -3 -1 8 18 24 l34 30 -33 -5 c-48 -7 -37 13 30 55
71 44 236 94 309 94 31 0 62 4 70 9 17 11 47 13 37 3z m-2670 -9 c-3 -3 -12
-4 -19 -1 -8 3 -5 6 6 6 11 1 17 -2 13 -5z m113 -19 c-14 -8 -32 -14 -40 -14
-9 0 -4 6 10 14 14 8 32 14 40 14 9 0 4 -6 -10 -14z m875 -15 c3 -5 2 -10 -4
-10 -5 0 -13 5 -16 10 -3 6 -2 10 4 10 5 0 13 -4 16 -10z m-938 -6 c-3 -3 -12
-4 -19 -1 -8 3 -5 6 6 6 11 1 17 -2 13 -5z m1118 -24 c10 -11 16 -20 13 -20
-3 0 -13 9 -23 20 -10 11 -16 20 -13 20 3 0 13 -9 23 -20z m1055 -34 c0 -2 -7
-7 -16 -10 -8 -3 -12 -2 -9 4 6 10 25 14 25 6z m-999 -53 c13 -16 12 -17 -3
-4 -10 7 -18 15 -18 17 0 8 8 3 21 -13z m40 -30 c13 -16 12 -17 -3 -4 -10 7
-18 15 -18 17 0 8 8 3 21 -13z"/>
<path d="M8521 7676 c-15 -18 0 -28 16 -10 7 7 9 15 4 18 -5 3 -14 -1 -20 -8z"/>
<path d="M6000 7632 c0 -5 10 -17 22 -28 l21 -19 -18 28 c-18 28 -25 33 -25
19z"/>
<path d="M8820 7255 c-13 -14 -21 -27 -19 -29 6 -6 20 4 43 32 26 30 5 28 -24
-3z"/>
<path d="M7627 7126 c-14 -13 -32 -26 -39 -29 -7 -2 -10 -7 -6 -11 3 -4 21 5
38 21 17 15 39 31 48 35 15 6 15 7 1 7 -9 1 -28 -10 -42 -23z"/>
<path d="M7690 7145 c0 -7 77 -45 92 -45 7 0 24 -10 38 -21 20 -17 21 -19 5
-14 -11 4 -35 13 -54 20 -30 11 -36 10 -52 -6 -30 -30 -45 -23 -40 18 3 23
-16 22 -45 -3 l-29 -24 28 6 c21 5 27 2 27 -10 0 -18 -45 -23 -55 -6 -5 8 -11
7 -21 -1 -12 -10 -13 -9 -8 5 3 9 3 16 0 16 -14 0 -66 -31 -66 -39 0 -5 -11
-12 -25 -15 -31 -8 -32 -22 -2 -31 12 -4 45 -18 73 -30 107 -49 138 -50 220
-10 28 14 56 25 63 25 9 0 9 5 1 20 -8 14 -8 20 0 20 6 0 13 -7 16 -15 8 -19
25 -19 50 0 18 14 18 14 -4 15 -15 0 -21 -4 -16 -11 4 -7 1 -10 -7 -7 -8 3
-15 14 -17 26 -2 12 -8 22 -13 22 -6 0 -8 4 -5 9 7 11 -6 22 -76 60 -52 29
-78 38 -78 26z m-165 -125 c-3 -5 -1 -10 4 -10 6 0 11 -4 11 -9 0 -8 -8 -8
-39 -2 -5 1 20 31 26 31 2 0 1 -4 -2 -10z"/>
<path d="M7140 7096 c0 -9 5 -16 10 -16 6 0 10 4 10 9 0 6 -4 13 -10 16 -5 3
-10 -1 -10 -9z"/>
<path d="M8160 7098 c0 -9 -8 -19 -17 -22 -12 -5 -14 -9 -5 -18 7 -7 12 -18
12 -25 0 -11 -5 -11 -21 -3 -13 7 -18 17 -15 27 5 12 1 14 -16 9 -13 -3 -26
-6 -30 -6 -5 0 -8 -5 -8 -11 0 -6 7 -8 16 -5 9 3 12 2 9 -5 -4 -6 -1 -9 6 -7
19 3 69 -31 69 -48 0 -8 5 -14 11 -14 12 0 8 51 -5 82 -6 13 -3 15 14 11 12
-3 19 -11 16 -18 -2 -7 6 -23 20 -36 13 -12 24 -20 24 -16 0 12 -42 82 -61
102 -16 16 -19 17 -19 3z"/>
<path d="M8054 7078 l-19 -21 28 18 c28 18 33 25 19 25 -5 0 -17 -10 -28 -22z"/>
<path d="M7230 7039 c-45 -51 -46 -55 -40 -134 1 -18 2 -17 11 5 12 29 26 40
56 40 26 0 103 38 103 51 0 10 -27 1 -55 -18 -11 -7 -28 -13 -38 -13 -10 0
-28 -7 -41 -15 -22 -15 -24 -14 -29 4 -3 14 8 34 36 66 22 25 45 45 50 45 6 0
25 -11 43 -25 19 -14 31 -20 29 -13 -5 12 -66 58 -76 58 -2 -1 -24 -24 -49
-51z"/>
<path d="M7189 7043 c-13 -17 -13 -17 6 -3 11 8 22 16 24 17 2 2 0 3 -6 3 -6
0 -17 -8 -24 -17z"/>
<path d="M7410 7050 c-8 -5 -12 -11 -9 -14 3 -3 14 1 25 9 21 16 8 20 -16 5z"/>
<path d="M8025 7020 c-3 -5 1 -10 9 -10 9 0 16 5 16 10 0 6 -4 10 -9 10 -6 0
-13 -4 -16 -10z"/>
<path d="M7370 7004 c0 -8 5 -12 10 -9 6 4 8 11 5 16 -9 14 -15 11 -15 -7z"/>
<path d="M7920 6993 c-25 -14 -47 -29 -50 -33 -3 -5 -18 -12 -33 -15 -30 -8
-35 -20 -12 -29 8 -3 15 -2 15 3 0 5 14 14 30 21 17 7 30 15 30 19 0 3 13 12
29 19 33 14 77 7 89 -15 5 -8 20 -20 33 -26 13 -7 28 -22 33 -33 6 -14 19 -21
38 -22 15 0 37 -3 47 -7 11 -3 22 -1 26 4 3 6 -15 13 -45 17 -33 4 -50 11 -50
20 0 17 -38 52 -91 82 -22 12 -41 22 -42 22 -1 -1 -22 -12 -47 -27z"/>
<path d="M7405 6990 c3 -5 14 -10 24 -10 9 0 27 -13 39 -30 13 -16 28 -30 34
-30 6 0 4 8 -5 18 -10 10 -14 21 -11 25 7 7 -49 37 -71 37 -9 0 -13 -4 -10
-10z"/>
<path d="M7096 6961 c-3 -5 12 -20 34 -35 43 -28 54 -22 17 10 -34 30 -45 35
-51 25z"/>
<path d="M8320 6930 c0 -6 7 -10 15 -10 8 0 15 2 15 4 0 2 -7 6 -15 10 -8 3
-15 1 -15 -4z"/>
<path d="M7911 6904 c0 -11 3 -14 6 -6 3 7 2 16 -1 19 -3 4 -6 -2 -5 -13z"/>
<path d="M7760 6900 c-12 -8 -11 -10 8 -10 12 0 22 5 22 10 0 13 -11 13 -30 0z"/>
<path d="M7830 6889 c0 -5 5 -7 10 -4 6 3 10 8 10 11 0 2 -4 4 -10 4 -5 0 -10
-5 -10 -11z"/>
<path d="M8479 7039 c-10 -6 -7 -9 14 -9 29 0 35 5 14 13 -8 3 -20 1 -28 -4z"/>
<path d="M8398 7003 c7 -3 16 -2 19 1 4 3 -2 6 -13 5 -11 0 -14 -3 -6 -6z"/>
<path d="M10457 6909 c7 -7 15 -10 18 -7 3 3 -2 9 -12 12 -14 6 -15 5 -6 -5z"/>
<path d="M10570 6872 c0 -7 52 -28 100 -39 23 -6 24 -5 11 11 -8 9 -16 15 -18
12 -3 -2 -20 2 -38 10 -38 16 -55 18 -55 6z"/>
<path d="M4345 6556 c-70 -14 -101 -29 -115 -56 -6 -12 -10 -174 -10 -445 0
-401 1 -426 18 -421 9 2 55 14 102 26 179 45 302 134 366 265 27 57 29 67 29
185 0 112 -2 130 -24 175 -31 63 -121 151 -186 181 -61 29 -144 32 -195 6 -49
-24 -57 -65 -66 -335 -10 -273 -25 -214 -21 82 2 149 5 192 17 207 14 18 14
18 -2 5 -16 -12 -18 -11 -18 15 0 31 20 42 115 60 l40 8 -30 8 c-18 4 5 6 56
3 76 -3 94 -8 150 -39 43 -24 83 -58 124 -105 61 -70 76 -82 54 -39 -12 23
-12 23 16 -2 110 -101 134 -127 138 -155 3 -25 4 -23 6 11 3 101 -60 217 -139
254 -29 14 -46 27 -39 31 15 9 -41 37 -121 59 -90 25 -193 31 -265 16z"/>
<path d="M4045 6490 c-16 -7 -17 -9 -3 -9 9 -1 20 4 23 9 7 11 7 11 -20 0z"/>
<path d="M3971 6464 c-18 -8 -31 -17 -28 -20 3 -3 22 4 44 15 44 23 34 26 -16
5z"/>
<path d="M3667 6435 c-43 -20 -94 -46 -114 -59 -47 -32 -145 -127 -138 -134 3
-3 18 6 33 20 15 14 32 24 39 21 6 -2 15 1 19 8 5 9 2 10 -11 5 -15 -5 -16 -4
-5 9 7 9 15 13 18 11 2 -3 13 -1 23 5 16 8 19 6 19 -12 0 -19 8 -14 53 33 28
31 67 63 85 72 17 9 32 21 32 26 0 6 6 10 14 10 8 0 18 5 21 10 10 16 -5 12
-88 -25z"/>
<path d="M3940 6326 c0 -2 9 -23 21 -47 20 -42 20 -43 15 -10 -3 18 -6 37 -6
41 0 4 -7 10 -15 14 -8 3 -15 4 -15 2z"/>
<path d="M3507 6273 c-4 -3 -7 -13 -7 -22 1 -13 3 -13 11 2 11 19 8 33 -4 20z"/>
<path d="M3911 5968 c-1 -131 -5 -208 -11 -208 -5 0 -10 -9 -10 -19 0 -11 -12
-29 -27 -42 -17 -13 -23 -23 -16 -26 7 -2 29 -16 50 -30 21 -15 55 -29 76 -33
l37 -7 -1 201 c0 110 -2 197 -4 191 -2 -5 -6 -28 -10 -49 l-7 -40 -16 33 c-12
26 -13 37 -4 51 6 10 7 20 2 22 -5 2 -11 16 -14 32 -3 16 -11 33 -17 37 -7 4
-16 27 -19 51 -4 25 -8 -45 -9 -164z"/>
<path d="M4965 6039 c-29 -91 -158 -243 -268 -316 -64 -43 -69 -48 -47 -53 37
-9 134 15 185 44 64 38 170 130 193 168 14 24 18 45 14 76 -3 36 -7 42 -28 42
-20 0 -24 5 -24 30 0 34 -15 40 -25 9z m-200 -299 c-3 -5 -16 -15 -28 -21 -21
-10 -21 -9 2 10 25 23 36 27 26 11z"/>
<path d="M3883 5825 c0 -22 2 -30 4 -17 2 12 2 30 0 40 -3 9 -5 -1 -4 -23z"/>
<path d="M4620 5083 c0 -6 8 -17 18 -24 16 -13 16 -13 2 6 -8 11 -16 22 -17
24 -2 2 -3 0 -3 -6z"/>
<path d="M8180 6368 c-12 -22 -12 -22 6 -6 10 10 15 20 12 24 -4 3 -12 -5 -18
-18z"/>
<path d="M7903 6215 c-3 -9 -3 -18 -1 -21 3 -3 8 4 11 16 6 23 -1 27 -10 5z"/>
<path d="M7891 6164 c0 -11 3 -14 6 -6 3 7 2 16 -1 19 -3 4 -6 -2 -5 -13z"/>
<path d="M8048 6116 c-3 -16 -2 -41 2 -56 6 -21 3 -29 -11 -38 -10 -7 -26 -12
-34 -12 -11 0 -15 -11 -15 -42 0 -39 5 -47 61 -99 43 -41 94 -73 182 -117 67
-33 132 -63 145 -67 12 -3 22 -13 22 -22 0 -9 36 -49 80 -90 59 -55 88 -91
113 -141 18 -38 38 -67 44 -65 6 2 14 -8 17 -24 4 -15 10 -23 14 -17 11 16 36
11 40 -8 2 -9 -1 -34 -7 -54 -14 -52 4 -29 23 29 36 109 14 167 -113 296 -80
81 -117 110 -221 171 -191 112 -310 235 -328 341 -8 41 -8 42 -14 15z m427
-422 c45 -30 97 -71 116 -91 l34 -36 -30 19 c-16 10 -34 24 -40 30 -24 27
-109 74 -124 69 -9 -3 -29 6 -45 20 -16 14 -24 25 -17 25 7 0 9 5 6 10 -14 23
22 6 100 -46z"/>
<path d="M7877 6088 c9 -74 45 -140 104 -188 l54 -45 -42 50 c-50 61 -80 122
-89 181 -9 60 -34 61 -27 2z"/>
<path d="M7812 5320 c0 -19 2 -27 5 -17 2 9 2 25 0 35 -3 9 -5 1 -5 -18z"/>
<path d="M10950 6442 c0 -9 25 -33 49 -47 10 -6 12 -4 6 6 -22 38 -55 63 -55
41z"/>
<path d="M7623 6225 c0 -22 2 -30 4 -17 2 12 2 30 0 40 -3 9 -5 -1 -4 -23z"/>
<path d="M7612 6110 c0 -19 2 -27 5 -17 2 9 2 25 0 35 -3 9 -5 1 -5 -18z"/>
<path d="M7603 5960 c0 -25 2 -35 4 -22 2 12 2 32 0 45 -2 12 -4 2 -4 -23z"/>
<path d="M7602 5885 c0 -16 2 -22 5 -12 2 9 2 23 0 30 -3 6 -5 -1 -5 -18z"/>
<path d="M7591 5694 c0 -11 3 -14 6 -6 3 7 2 16 -1 19 -3 4 -6 -2 -5 -13z"/>
<path d="M7588 5505 c-6 -49 -4 -64 8 -53 3 3 4 28 2 54 l-3 49 -7 -50z"/>
<path d="M9026 6031 c-8 -12 -120 -74 -166 -91 -56 -21 -59 -32 -5 -13 55 18
185 92 185 105 0 11 -8 10 -14 -1z"/>
<path d="M6826 5935 c-19 -14 -18 -15 11 -15 18 0 35 5 38 10 4 6 16 8 28 5
17 -5 19 -4 7 4 -21 15 -62 13 -84 -4z"/>
<path d="M6620 5900 c6 -11 13 -20 16 -20 2 0 0 9 -6 20 -6 11 -13 20 -16 20
-2 0 0 -9 6 -20z"/>
<path d="M6864 5885 c11 -8 23 -15 28 -15 4 0 19 -17 33 -37 14 -21 25 -34 25
-28 0 22 -48 76 -75 85 -28 9 -29 9 -11 -5z"/>
<path d="M6725 5849 c-20 -22 -33 -44 -29 -47 4 -4 9 -2 11 5 7 21 40 52 69
68 25 13 26 15 8 15 -13 0 -37 -17 -59 -41z"/>
<path d="M6890 5614 c-36 -19 -80 -51 -97 -71 -31 -33 -33 -40 -33 -107 l1
-71 43 -32 c52 -40 84 -41 125 -7 26 22 31 33 32 72 1 39 2 43 9 22 9 -28 2
145 -9 197 l-6 33 -65 -36z"/>
<path d="M6674 5416 c-3 -8 -4 -23 -2 -33 3 -11 6 -6 9 15 6 34 2 42 -7 18z"/>
<path d="M6514 5349 c-3 -6 -1 -16 5 -22 8 -8 11 -5 11 11 0 24 -5 28 -16 11z"/>
<path d="M11010 6021 c-8 -4 -42 -14 -75 -21 -33 -7 -54 -15 -47 -17 17 -7
142 28 142 38 0 11 -1 11 -20 0z"/>
<path d="M11405 5899 c11 -13 21 -26 22 -28 2 -2 3 3 3 12 0 9 -10 22 -22 28
l-23 12 20 -24z"/>
<path d="M10916 5892 c6 -4 14 -14 17 -22 4 -10 6 -8 6 8 1 15 -5 22 -16 22
-11 0 -14 -3 -7 -8z"/>
<path d="M11082 5845 c0 -16 2 -22 5 -12 2 9 2 23 0 30 -3 6 -5 -1 -5 -18z"/>
<path d="M11601 5824 c0 -11 3 -14 6 -6 3 7 2 16 -1 19 -3 4 -6 -2 -5 -13z"/>
<path d="M11603 5745 c0 -22 2 -30 4 -17 2 12 2 30 0 40 -3 9 -5 -1 -4 -23z"/>
<path d="M11092 5740 c0 -14 2 -19 5 -12 2 6 2 18 0 25 -3 6 -5 1 -5 -13z"/>
<path d="M11456 5555 c-4 -27 -11 -63 -16 -78 -6 -16 -5 -25 0 -22 11 7 33
110 27 133 -2 9 -7 -5 -11 -33z"/>
<path d="M10960 5275 c0 -5 5 -17 10 -25 5 -8 10 -10 10 -5 0 6 -5 17 -10 25
-5 8 -10 11 -10 5z"/>
<path d="M10550 5960 c-9 -6 -10 -10 -3 -10 6 0 15 5 18 10 8 12 4 12 -15 0z"/>
<path d="M10640 5812 c0 -18 12 -42 21 -42 14 0 10 26 -6 40 -9 8 -15 8 -15 2z"/>
<path d="M10402 5420 c0 -14 2 -19 5 -12 2 6 2 18 0 25 -3 6 -5 1 -5 -13z"/>
<path d="M10268 5388 c-10 -12 -18 -34 -19 -48 0 -14 -1 -42 -3 -63 -2 -21 1
-34 6 -29 11 11 39 122 36 144 -3 16 -5 15 -20 -4z"/>
<path d="M9707 5899 c-9 -5 -22 -7 -28 -4 -12 8 -39 -12 -39 -29 0 -7 3 -8 8
0 4 5 17 10 29 10 22 0 22 -1 -7 -31 -42 -43 -60 -104 -60 -201 0 -106 14
-170 57 -266 38 -83 70 -113 109 -104 32 9 70 78 84 156 23 125 -14 342 -70
412 -48 59 -40 77 13 28 22 -20 35 -26 42 -19 7 7 1 18 -18 35 -30 26 -87 32
-120 13z"/>
<path d="M9942 5535 c0 -16 2 -22 5 -12 2 9 2 23 0 30 -3 6 -5 -1 -5 -18z"/>
<path d="M9893 5404 c-6 -25 -7 -42 -3 -37 9 9 25 83 18 83 -3 0 -9 -21 -15
-46z"/>
<path d="M5348 5881 c-54 -34 -66 -54 -14 -22 48 30 50 26 11 -24 -43 -57 -56
-103 -56 -208 0 -58 6 -101 21 -147 30 -88 73 -170 104 -200 33 -30 49 -22 89
42 53 85 54 288 1 428 -31 83 -49 109 -88 126 l-31 13 38 1 c37 0 73 -21 59
-34 -3 -4 3 -9 14 -12 11 -3 27 -24 39 -52 16 -38 20 -43 23 -24 2 12 8 20 13
17 12 -8 11 2 -2 26 -5 11 -14 17 -19 14 -4 -3 -6 3 -3 14 7 27 -49 63 -106
68 -38 4 -54 -1 -93 -26z"/>
<path d="M5561 5724 c0 -11 3 -14 6 -6 3 7 2 16 -1 19 -3 4 -6 -2 -5 -13z"/>
<path d="M5576 5385 c-9 -26 -7 -32 5 -12 6 10 9 21 6 23 -2 3 -7 -2 -11 -11z"/>
<path d="M5120 5287 c0 -2 15 -16 33 -33 l32 -29 -29 33 c-28 30 -36 37 -36
29z"/>
<path d="M8156 4285 c-3 -9 -6 -22 -5 -28 0 -7 5 -1 10 12 5 13 8 26 5 28 -2
2 -6 -3 -10 -12z"/>
<path d="M10018 4833 c7 -3 16 -2 19 1 4 3 -2 6 -13 5 -11 0 -14 -3 -6 -6z"/>
<path d="M9020 4570 c0 -5 14 -7 33 -3 45 8 47 13 4 13 -20 0 -37 -4 -37 -10z"/>
<path d="M6960 4182 c0 -12 19 -26 26 -19 2 2 -2 10 -11 17 -9 8 -15 8 -15 2z"/>
<path d="M7616 9513 c-4 -5 -22 -13 -39 -20 -31 -11 -31 -12 -6 -12 14 -1 34
8 44 19 17 19 18 29 1 13z"/>
<path d="M7643 9330 c0 -41 2 -58 4 -37 2 20 2 54 0 75 -2 20 -4 3 -4 -38z"/>
<path d="M7605 9240 c-3 -5 -2 -10 4 -10 5 0 13 5 16 10 3 6 2 10 -4 10 -5 0
-13 -4 -16 -10z"/>
<path d="M7711 8985 c0 -11 4 -29 9 -40 l9 -20 0 20 c0 11 -4 29 -9 40 l-9 20
0 -20z"/>
<path d="M7641 8954 c0 -11 3 -14 6 -6 3 7 2 16 -1 19 -3 4 -6 -2 -5 -13z"/>
<path d="M7638 8693 c7 -3 16 -2 19 1 4 3 -2 6 -13 5 -11 0 -14 -3 -6 -6z"/>
<path d="M8291 8564 c37 -41 99 -136 99 -152 0 -7 5 -10 10 -7 6 3 18 -8 28
-25 9 -17 23 -39 29 -48 10 -14 11 -11 3 14 -6 16 -28 52 -50 78 -22 26 -52
67 -67 90 -15 24 -39 51 -53 61 l-25 18 26 -29z"/>
<path d="M7670 8555 c-1 -26 -3 -27 -10 -10 -5 11 -9 14 -9 7 -1 -17 -48 -88
-87 -134 -18 -20 -57 -71 -87 -115 -31 -43 -66 -90 -79 -104 -27 -31 -33 -40
-84 -139 -21 -41 -41 -77 -44 -80 -12 -12 -10 -91 4 -180 37 -225 88 -349 167
-407 24 -18 51 -39 61 -47 14 -13 24 -10 87 22 39 20 71 42 71 49 0 7 5 13 10
13 6 0 10 -7 10 -15 0 -8 5 -15 10 -15 6 0 10 -5 10 -12 0 -24 52 -58 88 -58
56 0 99 28 145 94 74 107 122 243 141 400 l11 101 -30 75 c-53 133 -185 331
-305 460 -33 36 -64 79 -69 95 l-9 30 -2 -30z m42 -122 c11 -27 27 -52 34 -56
8 -4 14 -13 14 -19 0 -6 -11 -1 -25 12 -14 13 -25 32 -25 42 0 11 -5 16 -10
13 -6 -3 -8 -16 -5 -28 5 -18 -2 -25 -37 -41 -24 -11 -47 -20 -53 -20 -19 -2
-55 -60 -55 -90 l0 -31 25 29 c14 16 25 37 25 47 0 35 18 28 22 -9 3 -20 1
-38 -4 -40 -11 -5 -10 -29 2 -37 5 -3 7 0 5 8 -6 15 31 54 42 43 4 -4 1 -12
-7 -17 -11 -8 -10 -9 8 -4 12 4 22 2 22 -4 0 -19 80 -134 115 -165 33 -30 51
-62 20 -36 -12 10 -18 10 -30 0 -23 -19 -18 -30 15 -30 25 0 30 -4 30 -24 0
-34 -14 -40 -49 -21 -25 13 -30 22 -33 59 l-3 44 -125 -135 -124 -135 -9 33
c-5 19 -7 71 -4 116 6 88 8 86 -38 46 -16 -16 -41 -17 -50 -3 -3 5 -7 32 -7
59 -1 42 6 61 43 122 48 80 135 183 178 211 14 10 34 15 44 12 16 -5 17 0 13
45 -7 65 8 66 36 4z m22 -112 c-6 -6 -24 19 -24 34 1 6 7 1 15 -9 8 -11 12
-22 9 -25z m82 -22 c29 -46 26 -65 -3 -22 -21 30 -35 63 -28 63 3 0 16 -18 31
-41z m55 -82 c23 -32 54 -83 47 -77 -16 13 -77 100 -70 100 4 0 14 -11 23 -23z
m-4 -259 c-3 -7 -5 -2 -5 12 0 14 2 19 5 13 2 -7 2 -19 0 -25z m-510 -10 c-3
-8 -6 -5 -6 6 -1 11 2 17 5 13 3 -3 4 -12 1 -19z m388 -308 c10 -31 -4 -42
-27 -21 -21 20 -17 41 7 41 7 0 16 -9 20 -20z m-60 -19 c3 -5 1 -12 -5 -16 -5
-3 -10 1 -10 9 0 18 6 21 15 7z m-5 -71 c0 -33 -2 -35 -31 -19 -29 15 -41 52
-20 60 27 11 51 -9 51 -41z"/>
<path d="M7009 8533 c-61 -68 -163 -253 -140 -253 5 0 19 23 31 52 27 62 83
151 124 196 16 17 25 32 20 32 -6 0 -21 -12 -35 -27z"/>
<path d="M6347 8446 c-49 -24 -76 -44 -44 -33 24 9 21 1 -9 -31 -27 -29 -48
-62 -39 -62 10 0 75 69 75 79 0 5 17 23 37 40 45 37 43 38 -20 7z"/>
<path d="M8899 8440 c13 -11 27 -20 32 -20 18 0 8 10 -23 25 l-33 16 24 -21z"/>
<path d="M9031 8334 c13 -17 26 -30 28 -27 3 2 -8 16 -24 31 l-28 27 24 -31z"/>
<path d="M8550 8325 c0 -8 4 -15 10 -15 5 0 7 7 4 15 -4 8 -8 15 -10 15 -2 0
-4 -7 -4 -15z"/>
<path d="M6795 8300 c-4 -6 6 -10 22 -10 22 0 25 2 13 10 -19 12 -27 12 -35 0z"/>
<path d="M6820 8250 l-25 -8 28 -1 c15 -1 27 4 27 9 0 6 -1 10 -2 9 -2 -1 -14
-5 -28 -9z"/>
<path d="M5859 8163 c-13 -16 -12 -17 4 -4 9 7 17 15 17 17 0 8 -8 3 -21 -13z"/>
<path d="M8025 8119 c13 -28 29 -56 35 -63 7 -6 -2 17 -19 52 -38 75 -50 83
-16 11z"/>
<path d="M5800 8115 c-13 -14 -22 -27 -19 -29 2 -2 14 10 27 25 29 36 24 38
-8 4z"/>
<path d="M7341 7474 c-2 -32 89 -124 121 -124 7 0 -1 8 -17 19 -29 17 -66 57
-92 97 -6 11 -12 14 -12 8z"/>
<path d="M7478 7313 c7 -3 16 -2 19 1 4 3 -2 6 -13 5 -11 0 -14 -3 -6 -6z"/>
<path d="M7735 7309 c7 -11 45 -12 62 -1 7 5 -4 8 -28 9 -23 1 -37 -2 -34 -8z"/>
<path d="M7230 7294 c-23 -13 -20 -14 35 -12 33 0 49 3 35 5 -14 3 -29 8 -35
12 -5 4 -21 2 -35 -5z"/>
<path d="M7168 7288 c5 -5 16 -8 23 -6 8 3 3 7 -10 11 -17 4 -21 3 -13 -5z"/>
<path d="M4966 7104 c-26 -9 -46 -17 -44 -19 2 -3 33 4 69 14 35 11 55 20 44
20 -11 0 -42 -7 -69 -15z"/>
<path d="M11265 7040 c3 -5 8 -10 11 -10 2 0 4 5 4 10 0 6 -5 10 -11 10 -5 0
-7 -4 -4 -10z"/>
<path d="M11239 7013 c-13 -16 -12 -17 4 -4 9 7 17 15 17 17 0 8 -8 3 -21 -13z"/>
<path d="M4041 7017 c-2 -17 60 -97 92 -118 31 -22 31 -22 -8 22 -22 25 -50
58 -62 75 -12 16 -22 25 -22 21z"/>
<path d="M11856 4998 c-5 -10 -12 -16 -16 -13 -10 6 -34 -52 -55 -136 -9 -35
-20 -68 -25 -74 -4 -5 -11 -26 -15 -45 -7 -31 -6 -33 9 -21 9 7 16 23 16 35 0
34 24 71 46 72 33 2 40 10 58 71 31 103 31 99 13 85 -13 -11 -16 -9 -19 15 -3
23 -6 25 -12 11z"/>
<path d="M11802 4798 c-7 -7 -12 -19 -12 -27 0 -11 5 -8 16 7 18 25 15 39 -4
20z"/>
<path d="M11766 4625 c-9 -26 -7 -32 5 -12 6 10 9 21 6 23 -2 3 -7 -2 -11 -11z"/>
</g>
</svg>
